<svg width="161" height="80" viewBox="0 0 161 80" fill="none" xmlns="http://www.w3.org/2000/svg">
<path d="M143.183 47.2809C142.579 47.2809 142.1 46.8012 142.1 46.1971C142.1 45.6108 142.579 45.1133 143.183 45.1133C143.77 45.1133 144.267 45.593 144.267 46.1971C144.267 46.7834 143.77 47.2809 143.183 47.2809ZM143.183 45.3265C142.704 45.3265 142.313 45.7174 142.313 46.1971C142.313 46.6768 142.704 47.0677 143.183 47.0677C143.663 47.0677 144.054 46.6768 144.054 46.1971C144.054 45.7174 143.663 45.3265 143.183 45.3265ZM143.734 46.7656H143.485L143.272 46.357H142.988V46.7656H142.757V45.5752H143.326C143.574 45.5752 143.734 45.7351 143.734 45.9661C143.734 46.1438 143.628 46.2681 143.485 46.3214L143.734 46.7656ZM143.308 46.1438C143.397 46.1438 143.485 46.0905 143.485 45.9661C143.485 45.824 143.414 45.7884 143.308 45.7884H142.952V46.1438H143.308Z" fill="#404041"/>
<path d="M30.2725 45.0068H33.0441V52.5579H37.859V54.9742H30.2725V45.0068Z" fill="#404041"/>
<path d="M40.7197 50.0175V49.982C40.7197 47.1214 43.0295 44.7939 46.1032 44.7939C49.1769 44.7939 51.4511 47.0859 51.4511 49.9464V49.982C51.4511 52.8425 49.1414 55.17 46.0676 55.17C42.9939 55.17 40.7197 52.878 40.7197 50.0175ZM48.6439 50.0175V49.982C48.6439 48.5428 47.6134 47.2991 46.0854 47.2991C44.5752 47.2991 43.5625 48.5251 43.5625 49.9642V49.9997C43.5625 51.4389 44.593 52.6826 46.1032 52.6826C47.6312 52.6826 48.6439 51.4566 48.6439 50.0175Z" fill="#404041"/>
<path d="M54.8447 50.6035V45.0068H57.6519V50.5502C57.6519 51.9893 58.3804 52.6645 59.482 52.6645C60.5835 52.6645 61.312 52.0071 61.312 50.6213V45.0068H64.1192V50.5324C64.1192 53.7483 62.2892 55.1519 59.4464 55.1519C56.6214 55.1519 54.8447 53.7305 54.8447 50.6035Z" fill="#404041"/>
<path d="M68.3477 45.0068H72.1854C75.7388 45.0068 77.8176 47.0501 77.8176 49.9283V49.9639C77.8176 52.8422 75.721 54.9742 72.1321 54.9742H68.3477V45.0068ZM72.2387 52.5223C73.891 52.5223 74.9926 51.6162 74.9926 49.9994V49.9639C74.9926 48.3648 73.891 47.4409 72.2387 47.4409H71.1193V52.5046H72.2387V52.5223Z" fill="#404041"/>
<path d="M81.832 45.0068H89.8095V47.4232H84.5859V49.1288H89.312V51.4208H84.5859V54.9742H81.832V45.0068Z" fill="#404041"/>
<path d="M93.6484 45.0068H96.4023V52.5579H101.235V54.9742H93.6484V45.0068Z" fill="#404041"/>
<path d="M108.448 44.9346H111.113L115.36 54.973H112.393L111.664 53.1963H107.826L107.116 54.973H104.22L108.448 44.9346ZM110.882 51.0465L109.781 48.2215L108.662 51.0465H110.882Z" fill="#404041"/>
<path d="M118.912 45.0068H123.62C125.148 45.0068 126.197 45.3977 126.872 46.0906C127.458 46.6592 127.76 47.4232 127.76 48.4181V48.4537C127.76 49.9816 126.943 50.9944 125.717 51.5096L128.098 54.992H124.9L122.892 51.9716H121.684V54.992H118.912V45.0068ZM123.496 49.7862C124.438 49.7862 124.971 49.3243 124.971 48.6136V48.578C124.971 47.7963 124.402 47.4054 123.478 47.4054H121.666V49.7862H123.496Z" fill="#404041"/>
<path d="M131.74 45.0068H139.753V47.3521H134.476V48.8623H139.256V51.0477H134.476V52.629H139.824V54.9742H131.74V45.0068Z" fill="#404041"/>
<path d="M24.2319 51.189C23.841 52.0596 23.0237 52.6814 21.9577 52.6814C20.4475 52.6814 19.417 51.4199 19.417 49.9986V49.963C19.417 48.5239 20.4297 47.298 21.9399 47.298C23.077 47.298 23.9476 47.9909 24.3029 48.9503H27.2168C26.7548 46.5695 24.6583 44.8105 21.9577 44.8105C18.884 44.8105 16.5742 47.138 16.5742 49.9986V50.0341C16.5742 52.8946 18.8484 55.1866 21.9221 55.1866C24.5517 55.1866 26.6127 53.4809 27.1457 51.2067L24.2319 51.189Z" fill="#404041"/>
<path d="M136.485 29.1053L128.863 24.7346L127.549 24.166L96.3672 24.3792V40.2098H136.485V29.1053Z" fill="white"/>
<path d="M122.609 38.7526C122.982 37.4733 122.84 36.3007 122.218 35.4301C121.649 34.6306 120.69 34.1686 119.535 34.1153L97.6636 33.8311C97.5215 33.8311 97.3971 33.76 97.326 33.6534C97.255 33.5468 97.2372 33.4046 97.2727 33.2625C97.3438 33.0493 97.557 32.8894 97.788 32.8716L119.855 32.5874C122.467 32.463 125.309 30.3487 126.304 27.7547L127.566 24.4678C127.619 24.3256 127.637 24.1835 127.601 24.0414C126.18 17.6096 120.441 12.8125 113.583 12.8125C107.258 12.8125 101.892 16.8989 99.9734 22.5667C98.7297 21.6428 97.1484 21.1453 95.4427 21.3052C92.4045 21.6072 89.9704 24.0414 89.6684 27.0795C89.5973 27.8613 89.6506 28.6253 89.8283 29.336C84.8713 29.4781 80.9092 33.529 80.9092 38.5216C80.9092 38.9658 80.9447 39.41 80.998 39.8541C81.0335 40.0673 81.2112 40.2272 81.4244 40.2272H121.791C122.022 40.2272 122.236 40.0673 122.307 39.8364L122.609 38.7526Z" fill="#F38020"/>
<path d="M129.574 24.6982C129.379 24.6982 129.166 24.6982 128.97 24.716C128.828 24.716 128.704 24.8226 128.651 24.9647L127.798 27.9319C127.425 29.2111 127.567 30.3837 128.189 31.2543C128.757 32.0539 129.717 32.5158 130.871 32.5691L135.526 32.8534C135.669 32.8534 135.793 32.9244 135.864 33.031C135.935 33.1376 135.953 33.2976 135.917 33.4219C135.846 33.6351 135.633 33.795 135.402 33.8128L130.552 34.0971C127.922 34.2214 125.097 36.3357 124.102 38.9297L123.747 39.8359C123.676 40.0135 123.8 40.1912 123.996 40.1912H140.661C140.857 40.1912 141.034 40.0668 141.088 39.8714C141.372 38.8409 141.532 37.7571 141.532 36.6378C141.532 30.0639 136.166 24.6982 129.574 24.6982Z" fill="#FAAE40"/>
</svg>
