<svg width="134" height="80" viewBox="0 0 134 80" fill="none" xmlns="http://www.w3.org/2000/svg">
<path d="M61.5374 30.3618C62.6276 30.3618 63.1476 31.2323 63.1476 32.3166V47.7718C63.1476 48.856 62.6155 49.7368 61.5322 49.7368V55.2287H71.9871V49.7299C70.9021 49.7299 70.3717 48.8491 70.3717 47.7649V32.3166C70.3717 31.2323 70.9021 30.3532 71.9871 30.3532V24.8613H61.5374V30.3618Z" fill="#005CA9"/>
<path d="M106.09 32.362C106.095 32.1666 106.139 31.9741 106.22 31.7958C106.301 31.6175 106.416 31.4569 106.559 31.3232C106.703 31.1895 106.871 31.0854 107.056 31.017C107.24 30.9485 107.436 30.9171 107.632 30.9244C108.695 30.9244 110.286 31.9414 110.286 35.1959H115.439V24.8534H110.984C110.984 24.8534 111.066 26.06 110.184 26.06C109.097 26.0617 108.211 24.5 105.206 24.5C100.968 24.5 98.252 27.8665 98.252 32.7309C98.252 41.6358 109.873 41.8513 109.873 46.9278C109.873 48.0879 109.255 49.017 107.852 49.017C106.695 49.017 104.511 48.2275 104.02 44.2525H98.6662V55.2208H103.11C103.11 55.2208 103.029 54.0141 103.913 54.0141C105.003 54.0141 105.993 55.4966 109.317 55.4966C114.243 55.4966 117.571 51.8353 117.571 46.9243C117.571 36.7076 106.09 36.2112 106.09 32.362Z" fill="#005CA9"/>
<path d="M57.9911 47.7717C57.9911 41.2111 55.0308 39.6977 52.1623 39.6977C57.0777 38.9341 58.9375 35.8572 58.9375 32.8406V32.8182C58.9687 30.4394 58.3153 28.5467 56.9945 27.1832C54.8089 24.9217 51.8104 24.8613 51.5556 24.8613H37.9307V30.3618C39.0139 30.3618 39.546 31.2409 39.546 32.3252V47.7717C39.546 48.856 39.0139 49.7368 37.9307 49.7368V55.2322H48.571V49.7299C48.2625 49.7127 48.0874 49.673 47.6836 49.3214C47.2797 48.9698 47.103 48.5061 47.0926 47.8872V42.454C47.6247 42.454 49.3943 42.3936 50.1777 43.5417C50.8519 44.5104 50.6977 47.9803 50.6977 47.9803C50.6977 53.2516 52.7394 55.2201 54.977 55.2201H59.5996V49.7299C58.5232 49.7299 57.9911 48.8491 57.9911 47.7717ZM50.7115 33.8835C50.7115 36.9052 48.4445 36.9121 48.4445 36.9121H47.0891V30.3618H48.4445C48.4445 30.3618 50.715 30.3618 50.7115 33.3905V33.8835Z" fill="#005CA9"/>
<path d="M16.0029 30.3618C17.0862 30.3618 17.6183 31.2409 17.6183 32.3252V47.7718C17.6183 48.856 17.0862 49.7368 16.0029 49.7368V55.2287H36.001V44.2536H29.7371V47.7718C29.7371 48.856 29.2067 49.7368 28.1217 49.7368H24.7298V42.3988C25.7021 42.3988 26.4925 43.1969 26.5115 44.2605H28.919V35.8503H26.5185C26.4977 36.9121 25.7091 37.7119 24.735 37.7119V30.3532H28.1217C29.2067 30.3532 29.7371 31.2323 29.7371 32.3166V35.8503H36.001V24.8613H16.0029V30.3618Z" fill="#005CA9"/>
<path d="M86.2882 30.3618C86.9104 30.3618 87.0889 30.9789 87.0889 31.3358C87.0889 31.7736 86.9277 32.2959 86.4736 32.9026L82.7333 37.8877V32.3166C82.7333 31.2323 83.2654 30.3532 84.3487 30.3532V24.8613H73.9111V30.3618C74.9961 30.3618 75.5265 31.2409 75.5265 32.3252V47.7718C75.5265 48.8577 74.9961 49.7368 73.9111 49.7368V55.2287H84.3556V49.7299C83.2723 49.7299 82.7402 48.8508 82.7402 47.7649V45.9256L84.9415 43.0969L86.6747 47.446C86.6747 47.446 87.3073 48.7543 86.283 49.7299V55.2218H96.7309V49.7299C95.1086 49.7075 94.6129 48.1372 94.6129 48.1372L90.4272 36.0502L93.9994 31.4633C93.9994 31.4633 94.7672 30.3618 96.7361 30.3618V24.8613H86.2882V30.3618Z" fill="#005CA9"/>
<mask id="mask0_620_1579" style="mask-type:alpha" maskUnits="userSpaceOnUse" x="16" y="24" width="102" height="32">
<g clip-path="url(#clip0_620_1579)">
<path d="M61.5374 30.3618C62.6276 30.3618 63.1476 31.2323 63.1476 32.3166V47.7718C63.1476 48.856 62.6155 49.7368 61.5322 49.7368V55.2287H71.9871V49.7299C70.9021 49.7299 70.3717 48.8491 70.3717 47.7649V32.3166C70.3717 31.2323 70.9021 30.3532 71.9871 30.3532V24.8613H61.5374V30.3618Z" fill="#005CA9"/>
<path d="M106.09 32.362C106.095 32.1666 106.139 31.9741 106.22 31.7958C106.301 31.6175 106.416 31.4569 106.559 31.3232C106.703 31.1895 106.871 31.0854 107.056 31.017C107.24 30.9485 107.436 30.9171 107.632 30.9244C108.695 30.9244 110.286 31.9414 110.286 35.1959H115.439V24.8534H110.984C110.984 24.8534 111.066 26.06 110.184 26.06C109.097 26.0617 108.211 24.5 105.206 24.5C100.968 24.5 98.252 27.8665 98.252 32.7309C98.252 41.6358 109.873 41.8513 109.873 46.9278C109.873 48.0879 109.255 49.017 107.852 49.017C106.695 49.017 104.511 48.2275 104.02 44.2525H98.6662V55.2208H103.11C103.11 55.2208 103.029 54.0141 103.913 54.0141C105.003 54.0141 105.993 55.4966 109.317 55.4966C114.243 55.4966 117.571 51.8353 117.571 46.9243C117.571 36.7076 106.09 36.2112 106.09 32.362Z" fill="#005CA9"/>
<path d="M57.9911 47.7717C57.9911 41.2111 55.0308 39.6977 52.1623 39.6977C57.0777 38.9341 58.9375 35.8572 58.9375 32.8406V32.8182C58.9687 30.4394 58.3153 28.5467 56.9945 27.1832C54.8089 24.9217 51.8104 24.8613 51.5556 24.8613H37.9307V30.3618C39.0139 30.3618 39.546 31.2409 39.546 32.3252V47.7717C39.546 48.856 39.0139 49.7368 37.9307 49.7368V55.2322H48.571V49.7299C48.2625 49.7127 48.0874 49.673 47.6836 49.3214C47.2797 48.9698 47.103 48.5061 47.0926 47.8872V42.454C47.6247 42.454 49.3943 42.3936 50.1777 43.5417C50.8519 44.5104 50.6977 47.9803 50.6977 47.9803C50.6977 53.2516 52.7394 55.2201 54.977 55.2201H59.5996V49.7299C58.5232 49.7299 57.9911 48.8491 57.9911 47.7717ZM50.7115 33.8835C50.7115 36.9052 48.4445 36.9121 48.4445 36.9121H47.0891V30.3618H48.4445C48.4445 30.3618 50.715 30.3618 50.7115 33.3905V33.8835Z" fill="#005CA9"/>
<path d="M16.0029 30.3618C17.0862 30.3618 17.6183 31.2409 17.6183 32.3252V47.7718C17.6183 48.856 17.0862 49.7368 16.0029 49.7368V55.2287H36.001V44.2536H29.7371V47.7718C29.7371 48.856 29.2067 49.7368 28.1217 49.7368H24.7298V42.3988C25.7021 42.3988 26.4925 43.1969 26.5115 44.2605H28.919V35.8503H26.5185C26.4977 36.9121 25.7091 37.7119 24.735 37.7119V30.3532H28.1217C29.2067 30.3532 29.7371 31.2323 29.7371 32.3166V35.8503H36.001V24.8613H16.0029V30.3618Z" fill="#005CA9"/>
<path d="M86.2882 30.3618C86.9104 30.3618 87.0889 30.9789 87.0889 31.3358C87.0889 31.7736 86.9277 32.2959 86.4736 32.9026L82.7333 37.8877V32.3166C82.7333 31.2323 83.2654 30.3532 84.3487 30.3532V24.8613H73.9111V30.3618C74.9961 30.3618 75.5265 31.2409 75.5265 32.3252V47.7718C75.5265 48.8577 74.9961 49.7368 73.9111 49.7368V55.2287H84.3556V49.7299C83.2723 49.7299 82.7402 48.8508 82.7402 47.7649V45.9256L84.9415 43.0969L86.6747 47.446C86.6747 47.446 87.3073 48.7543 86.283 49.7299V55.2218H96.7309V49.7299C95.1086 49.7075 94.6129 48.1372 94.6129 48.1372L90.4272 36.0502L93.9994 31.4633C93.9994 31.4633 94.7672 30.3618 96.7361 30.3618V24.8613H86.2882V30.3618Z" fill="#005CA9"/>
</g>
</mask>
<g mask="url(#mask0_620_1579)">
<path d="M15.5088 39.6484H117.707V57.7285H15.5088V39.6484Z" fill="#FFD700"/>
</g>
<defs>
<clipPath id="clip0_620_1579">
<rect width="101.574" height="31" fill="white" transform="translate(16 24.5)"/>
</clipPath>
</defs>
</svg>
