<svg width="126" height="80" viewBox="0 0 126 80" fill="none" xmlns="http://www.w3.org/2000/svg">
<g clip-path="url(#clip0_903_1723)">
<path d="M23.9919 24.9128C15.6939 24.9287 8.98415 31.71 9.00003 40.0238C9.03179 48.3614 15.7654 55.1109 24.0554 55.0871C32.3533 55.0633 39.0631 48.282 39.0393 39.9444C39.0155 31.6306 32.2739 24.889 23.9919 24.9128ZM38.3961 39.9761C38.412 43.7876 36.943 47.2656 34.5211 49.8781L34.5052 47.0036C34.5052 46.9559 34.529 46.9559 34.529 46.9559C34.5052 46.9559 34.5052 46.9321 34.5052 46.9321V46.9083C34.3464 46.6542 34.1876 46.408 34.005 46.1539C31.6784 42.803 28.6212 39.9762 25.048 37.9513L33.9811 37.9354L38.2532 37.9195C38.3564 38.6024 38.3961 39.2615 38.3961 39.9761V39.9761ZM33.9891 34.9974L17.4726 35.045V37.9592C18.9972 38.3007 20.5059 38.7771 21.9353 39.4124C19.299 38.6977 16.5277 38.4039 13.3832 38.4119H13.2721V42.1598L14.1376 41.2863C21.8876 41.4531 28.8912 44.677 34.0129 49.7987C34.1241 49.894 34.2273 49.9813 34.3146 50.0766C34.2273 50.1957 34.132 50.283 34.0208 50.3783C31.456 52.8796 27.9383 54.436 24.0792 54.4519C16.1307 54.4757 9.69086 48.012 9.6591 40.0476C9.65116 32.0673 16.0592 25.5957 24.0157 25.5719C27.8748 25.556 31.4004 27.0806 33.9732 29.5899C35.5375 31.0668 36.7524 32.917 37.5306 34.9895L33.9891 34.9974V34.9974ZM90.2879 31.9006L90.3196 44.5261C89.8194 45.4631 88.5648 45.8442 87.5881 45.8442C84.9994 45.8442 83.8878 45.0343 83.8639 41.8025L83.856 31.9323L80.1716 31.9482L80.2113 42.1519C80.2113 47.4403 83.4034 49.0205 87.3419 49.084C90.1132 49.1317 92.4239 48.012 93.742 46.686C93.9167 46.5113 94.02 46.273 94.02 46.0189L93.9803 31.9323L90.2879 31.9006V31.9006ZM116.968 47.7976L112.013 31.972H108.424L102.993 48.6155H106.471L107.384 45.5425C108.647 45.6616 111.299 45.9792 113.641 48.5361L113.665 48.6076H116.381C116.794 48.6155 117.095 48.2026 116.968 47.7976ZM108.178 42.7951L108.44 41.8978C108.702 41.064 108.917 40.3494 109.321 38.8168C109.512 38.0545 109.869 36.6411 110.108 35.6406C110.417 37.2366 110.56 37.6496 110.775 38.5548C110.965 39.3885 111.156 40.2223 111.68 41.8978L112.363 44.2323C110.925 43.4065 109.456 43.0253 108.178 42.7951V42.7951ZM97.2438 48.6155H99.7769C100.404 48.6155 100.92 48.0994 100.92 47.4721V31.972H97.2438V48.6155ZM46.3526 48.5996H49.7035V41.1752H52.2604C53.1894 41.1752 53.9438 40.4208 53.9438 39.4918V38.4436H49.7035V34.6242H53.4197C54.3249 34.6242 55.0872 33.9572 55.2143 33.0599L55.381 31.9085H46.3526V48.5996V48.5996ZM60.4868 31.9006H57.0644V48.5996H64.2666C65.1956 48.5996 65.9976 47.9485 66.1882 47.0433L66.4502 45.8125H60.4868V31.9006V31.9006ZM71.9372 36.5141C71.6513 37.1572 71.3575 37.8481 71.0478 38.6024C70.8414 37.9116 70.5634 37.2049 70.2061 36.4664L68.078 31.9006H64.2745C64.1792 31.9006 64.1157 32.0038 64.1554 32.0911L69.2294 41.7231V48.5917H71.7307C72.2786 48.5917 72.7233 48.147 72.7233 47.5912V41.7151L78.0435 31.8847H74.0891L71.9372 36.5141V36.5141Z" fill="#173D79"/>
</g>
<defs>
<clipPath id="clip0_903_1723">
<rect width="108" height="30.1743" fill="white" transform="translate(9 24.9129)"/>
</clipPath>
</defs>
</svg>
