<svg width="127" height="80" viewBox="0 0 127 80" fill="none" xmlns="http://www.w3.org/2000/svg">
<g clip-path="url(#clip0_623_1660)">
<path d="M41.9177 32.2457C42.6531 32.2457 43.3032 32.1823 43.8678 32.0553C44.4325 31.9284 44.9512 31.7511 45.424 31.5235V26.7041H41.8652V28.0698H43.8219V30.4335C43.2966 30.6524 42.6794 30.7618 41.9703 30.7618C41.4538 30.7618 40.9919 30.6765 40.5849 30.5058C40.1778 30.335 39.832 30.0965 39.5474 29.7901C39.2629 29.4837 39.044 29.1225 38.8908 28.7067C38.7376 28.2908 38.661 27.8334 38.661 27.3344C38.661 26.8529 38.7376 26.4064 38.8908 25.9949C39.044 25.5835 39.2607 25.2245 39.5409 24.9181C39.821 24.6117 40.1603 24.371 40.5586 24.1959C40.9569 24.0208 41.4012 23.9332 41.8915 23.9332C42.3905 23.9332 42.8523 24.0252 43.2769 24.209C43.7015 24.3928 44.032 24.6161 44.2684 24.8787L45.4108 23.6443C45.0344 23.2941 44.5376 23.0118 43.9204 22.7973C43.3032 22.5828 42.6225 22.4756 41.8783 22.4756C41.1605 22.4756 40.4951 22.5894 39.8823 22.817C39.2695 23.0446 38.7376 23.3686 38.2868 23.7888C37.8359 24.209 37.4813 24.719 37.2231 25.3186C36.9648 25.9183 36.8357 26.5903 36.8357 27.3344C36.8357 28.061 36.9604 28.7242 37.21 29.3239C37.4595 29.9236 37.8075 30.4401 38.2539 30.8734C38.7004 31.3068 39.2345 31.6439 39.856 31.8846C40.4776 32.1254 41.1648 32.2457 41.9177 32.2457ZM50.3748 32.1932C51.5567 32.1932 52.4584 31.773 53.08 30.9325L52.0295 30.0921C51.8544 30.346 51.6311 30.5451 51.3597 30.6896C51.0883 30.8341 50.7557 30.9063 50.3617 30.9063C50.1341 30.9063 49.9152 30.8669 49.7051 30.7881C49.495 30.7093 49.3068 30.6021 49.1404 30.4664C48.9741 30.3307 48.8406 30.1687 48.7399 29.9805C48.6392 29.7923 48.5801 29.5843 48.5626 29.3567H53.3558C53.3645 29.2867 53.3689 29.2166 53.3689 29.1466V28.9365C53.3689 28.3674 53.2923 27.8706 53.1391 27.446C52.9859 27.0214 52.7736 26.6669 52.5022 26.3823C52.2308 26.0978 51.9091 25.8833 51.537 25.7389C51.1649 25.5944 50.76 25.5222 50.3223 25.5222C49.8496 25.5222 49.4096 25.6032 49.0026 25.7651C48.5955 25.9271 48.2431 26.1547 47.9454 26.448C47.6478 26.7413 47.4136 27.0958 47.2429 27.5117C47.0722 27.9275 46.9868 28.3893 46.9868 28.8971C46.9868 29.4136 47.0722 29.8754 47.2429 30.2825C47.4136 30.6896 47.65 31.0332 47.952 31.3134C48.254 31.5935 48.6108 31.8102 49.0223 31.9634C49.4337 32.1166 49.8846 32.1932 50.3748 32.1932ZM51.7931 28.2274H48.5626C48.5977 27.7809 48.7793 27.4154 49.1076 27.1309C49.4359 26.8463 49.8364 26.7041 50.3092 26.7041C50.5631 26.7041 50.7841 26.7456 50.9723 26.8288C51.1606 26.912 51.316 27.0236 51.4385 27.1637C51.5611 27.3038 51.6508 27.4657 51.7077 27.6496C51.7646 27.8334 51.7931 28.026 51.7931 28.2274ZM56.4682 32.0094V28.5425C56.4682 28.3324 56.4966 28.1245 56.5535 27.9188C56.6105 27.713 56.6936 27.5314 56.8031 27.3738C56.9125 27.2162 57.0547 27.0871 57.2298 26.9864C57.4049 26.8857 57.6107 26.8354 57.847 26.8354C58.2498 26.8354 58.5452 26.9645 58.7334 27.2228C58.9217 27.481 59.0158 27.8071 59.0158 28.2011V32.0094H60.5916V28.5688C60.5916 28.3674 60.6179 28.1639 60.6704 27.9582C60.7229 27.7524 60.8061 27.5664 60.9199 27.4001C61.0337 27.2337 61.1782 27.098 61.3533 26.993C61.5284 26.8879 61.7385 26.8354 61.9836 26.8354C62.2375 26.8354 62.441 26.8879 62.5942 26.993C62.7474 27.098 62.8678 27.2315 62.9554 27.3935C63.0429 27.5554 63.0998 27.7371 63.1261 27.9385C63.1523 28.1398 63.1655 28.3324 63.1655 28.5163V32.0094H64.7413V28.0698C64.7413 27.7459 64.6975 27.4307 64.61 27.1243C64.5224 26.8179 64.3845 26.5465 64.1963 26.3101C64.0081 26.0737 63.7673 25.8833 63.4741 25.7389C63.1808 25.5944 62.8284 25.5222 62.4169 25.5222C61.9442 25.5222 61.5327 25.6251 61.1826 25.8308C60.8324 26.0365 60.5522 26.332 60.3421 26.7172C60.167 26.3583 59.9175 26.0694 59.5936 25.8505C59.2697 25.6316 58.8626 25.5222 58.3723 25.5222C58.1184 25.5222 57.8864 25.555 57.6763 25.6207C57.4662 25.6863 57.2802 25.7761 57.1182 25.8899C56.9563 26.0037 56.8162 26.1306 56.698 26.2707C56.5798 26.4108 56.4857 26.5596 56.4157 26.7172H56.3894V25.706H54.8924V32.0094H56.4682ZM69.6002 32.1932C70.7821 32.1932 71.6839 31.773 72.3054 30.9325L71.2549 30.0921C71.0798 30.346 70.8565 30.5451 70.5851 30.6896C70.3138 30.8341 69.9811 30.9063 69.5871 30.9063C69.3595 30.9063 69.1406 30.8669 68.9305 30.7881C68.7204 30.7093 68.5322 30.6021 68.3659 30.4664C68.1995 30.3307 68.066 30.1687 67.9653 29.9805C67.8647 29.7923 67.8056 29.5843 67.788 29.3567H72.5812C72.5899 29.2867 72.5943 29.2166 72.5943 29.1466V28.9365C72.5943 28.3674 72.5177 27.8706 72.3645 27.446C72.2113 27.0214 71.999 26.6669 71.7276 26.3823C71.4562 26.0978 71.1345 25.8833 70.7624 25.7389C70.3904 25.5944 69.9855 25.5222 69.5477 25.5222C69.075 25.5222 68.6351 25.6032 68.228 25.7651C67.8209 25.9271 67.4685 26.1547 67.1708 26.448C66.8732 26.7413 66.639 27.0958 66.4683 27.5117C66.2976 27.9275 66.2122 28.3893 66.2122 28.8971C66.2122 29.4136 66.2976 29.8754 66.4683 30.2825C66.639 30.6896 66.8754 31.0332 67.1774 31.3134C67.4794 31.5935 67.8362 31.8102 68.2477 31.9634C68.6591 32.1166 69.11 32.1932 69.6002 32.1932ZM71.0185 28.2274H67.788C67.8231 27.7809 68.0047 27.4154 68.333 27.1309C68.6613 26.8463 69.0618 26.7041 69.5346 26.7041C69.7885 26.7041 70.0095 26.7456 70.1978 26.8288C70.386 26.912 70.5414 27.0236 70.6639 27.1637C70.7865 27.3038 70.8762 27.4657 70.9331 27.6496C70.99 27.8334 71.0185 28.026 71.0185 28.2274ZM77.1381 32.1932C78.32 32.1932 79.2217 31.773 79.8433 30.9325L78.7927 30.0921C78.6176 30.346 78.3944 30.5451 78.123 30.6896C77.8516 30.8341 77.5189 30.9063 77.125 30.9063C76.8974 30.9063 76.6785 30.8669 76.4684 30.7881C76.2583 30.7093 76.0701 30.6021 75.9037 30.4664C75.7374 30.3307 75.6039 30.1687 75.5032 29.9805C75.4025 29.7923 75.3434 29.5843 75.3259 29.3567H80.1191C80.1278 29.2867 80.1322 29.2166 80.1322 29.1466V28.9365C80.1322 28.3674 80.0556 27.8706 79.9024 27.446C79.7492 27.0214 79.5369 26.6669 79.2655 26.3823C78.9941 26.0978 78.6724 25.8833 78.3003 25.7389C77.9282 25.5944 77.5233 25.5222 77.0856 25.5222C76.6128 25.5222 76.1729 25.6032 75.7658 25.7651C75.3587 25.9271 75.0064 26.1547 74.7087 26.448C74.4111 26.7413 74.1769 27.0958 74.0062 27.5117C73.8354 27.9275 73.7501 28.3893 73.7501 28.8971C73.7501 29.4136 73.8354 29.8754 74.0062 30.2825C74.1769 30.6896 74.4132 31.0332 74.7153 31.3134C75.0173 31.5935 75.3741 31.8102 75.7855 31.9634C76.197 32.1166 76.6479 32.1932 77.1381 32.1932ZM78.5564 28.2274H75.3259C75.3609 27.7809 75.5426 27.4154 75.8709 27.1309C76.1992 26.8463 76.5997 26.7041 77.0725 26.7041C77.3263 26.7041 77.5474 26.7456 77.7356 26.8288C77.9238 26.912 78.0792 27.0236 78.2018 27.1637C78.3244 27.3038 78.4141 27.4657 78.471 27.6496C78.5279 27.8334 78.5564 28.026 78.5564 28.2274ZM83.2315 32.0094V28.5425C83.2315 28.3324 83.2621 28.1245 83.3234 27.9188C83.3847 27.713 83.4744 27.5314 83.5926 27.3738C83.7108 27.2162 83.8618 27.0871 84.0456 26.9864C84.2295 26.8857 84.4484 26.8354 84.7022 26.8354C84.9561 26.8354 85.1597 26.8879 85.3129 26.993C85.4661 27.098 85.5865 27.2315 85.674 27.3935C85.7615 27.5554 85.8185 27.7371 85.8447 27.9385C85.871 28.1398 85.8841 28.3324 85.8841 28.5163V32.0094H87.4599V28.0698C87.4599 27.7459 87.4162 27.4307 87.3286 27.1243C87.2411 26.8179 87.1032 26.5465 86.915 26.3101C86.7267 26.0737 86.486 25.8833 86.1927 25.7389C85.8994 25.5944 85.5471 25.5222 85.1356 25.5222C84.6628 25.5222 84.2536 25.6426 83.9078 25.8833C83.562 26.1241 83.319 26.402 83.1789 26.7172H83.1527V25.706H81.6556V32.0094H83.2315ZM91.5441 32.1407C91.7192 32.1407 91.903 32.1254 92.0957 32.0947C92.2883 32.0641 92.4546 32.0225 92.5947 31.97L92.5421 30.7356C92.4458 30.7793 92.3364 30.8122 92.2138 30.8341C92.0913 30.8559 91.9775 30.8669 91.8724 30.8669C91.5222 30.8669 91.2968 30.775 91.1961 30.5911C91.0954 30.4073 91.0451 30.1753 91.0451 29.8951V26.9667H92.6209V25.706H91.0451V23.8807H89.4955V25.706H88.3924V26.9667H89.4955V29.9083C89.4955 30.2147 89.524 30.5014 89.5809 30.7684C89.6378 31.0354 89.7428 31.2718 89.8961 31.4775C90.0493 31.6833 90.2572 31.8452 90.5198 31.9634C90.7825 32.0816 91.1239 32.1407 91.5441 32.1407ZM96.7839 32.1932C97.9658 32.1932 98.8675 31.773 99.4891 30.9325L98.4385 30.0921C98.2634 30.346 98.0402 30.5451 97.7688 30.6896C97.4974 30.8341 97.1647 30.9063 96.7708 30.9063C96.5431 30.9063 96.3243 30.8669 96.1142 30.7881C95.904 30.7093 95.7158 30.6021 95.5495 30.4664C95.3831 30.3307 95.2496 30.1687 95.149 29.9805C95.0483 29.7923 94.9892 29.5843 94.9717 29.3567H99.7648C99.7736 29.2867 99.778 29.2166 99.778 29.1466V28.9365C99.778 28.3674 99.7014 27.8706 99.5482 27.446C99.3949 27.0214 99.1827 26.6669 98.9113 26.3823C98.6399 26.0978 98.3181 25.8833 97.9461 25.7389C97.574 25.5944 97.1691 25.5222 96.7314 25.5222C96.2586 25.5222 95.8187 25.6032 95.4116 25.7651C95.0045 25.9271 94.6521 26.1547 94.3545 26.448C94.0568 26.7413 93.8226 27.0958 93.6519 27.5117C93.4812 27.9275 93.3959 28.3893 93.3959 28.8971C93.3959 29.4136 93.4812 29.8754 93.6519 30.2825C93.8226 30.6896 94.059 31.0332 94.361 31.3134C94.6631 31.5935 95.0198 31.8102 95.4313 31.9634C95.8428 32.1166 96.2936 32.1932 96.7839 32.1932ZM98.2021 28.2274H94.9717C95.0067 27.7809 95.1884 27.4154 95.5167 27.1309C95.845 26.8463 96.2455 26.7041 96.7182 26.7041C96.9721 26.7041 97.1932 26.7456 97.3814 26.8288C97.5696 26.912 97.725 27.0236 97.8476 27.1637C97.9701 27.3038 98.0599 27.4657 98.1168 27.6496C98.1737 27.8334 98.2021 28.026 98.2021 28.2274ZM38.0044 45.1413L38.8449 43.0139H42.8764L43.7431 45.1413H45.6341L41.6288 35.8439H40.1975L36.1528 45.1413H38.0044ZM42.2986 41.5957H39.4095L40.8672 37.8137L42.2986 41.5957ZM48.0505 45.1413V41.6745C48.0505 41.4643 48.0789 41.2564 48.1358 41.0507C48.1928 40.845 48.2759 40.6633 48.3854 40.5057C48.4948 40.3481 48.6371 40.219 48.8121 40.1183C48.9872 40.0176 49.193 39.9673 49.4293 39.9673C49.8321 39.9673 50.1275 40.0964 50.3157 40.3547C50.504 40.613 50.5981 40.9391 50.5981 41.333V45.1413H52.1739V41.7007C52.1739 41.4994 52.2002 41.2958 52.2527 41.0901C52.3052 40.8843 52.3884 40.6983 52.5022 40.532C52.616 40.3656 52.7605 40.2299 52.9356 40.1249C53.1107 40.0198 53.3208 39.9673 53.5659 39.9673C53.8198 39.9673 54.0233 40.0198 54.1765 40.1249C54.3297 40.2299 54.4501 40.3634 54.5377 40.5254C54.6252 40.6874 54.6821 40.869 54.7084 41.0704C54.7346 41.2717 54.7478 41.4643 54.7478 41.6482V45.1413H56.3236V41.2017C56.3236 40.8778 56.2798 40.5626 56.1923 40.2562C56.1047 39.9498 55.9668 39.6784 55.7786 39.442C55.5904 39.2057 55.3497 39.0152 55.0564 38.8708C54.7631 38.7263 54.4107 38.6541 53.9993 38.6541C53.5265 38.6541 53.115 38.757 52.7649 38.9627C52.4147 39.1684 52.1345 39.4639 51.9244 39.8491C51.7493 39.4902 51.4998 39.2013 51.1759 38.9824C50.852 38.7635 50.4449 38.6541 49.9546 38.6541C49.7007 38.6541 49.4687 38.6869 49.2586 38.7526C49.0485 38.8183 48.8625 38.908 48.7005 39.0218C48.5386 39.1356 48.3985 39.2626 48.2803 39.4026C48.1621 39.5427 48.068 39.6915 47.998 39.8491H47.9717V38.838H46.4747V45.1413H48.0505ZM60.0007 45.3251C60.3421 45.3251 60.6726 45.2879 60.9921 45.2135C61.3117 45.1391 61.5918 45.0187 61.8326 44.8524C62.0733 44.686 62.2659 44.4694 62.4104 44.2023C62.5548 43.9353 62.6271 43.6092 62.6271 43.224C62.6271 42.9176 62.5658 42.6572 62.4432 42.4427C62.3207 42.2282 62.1609 42.0487 61.9639 41.9043C61.7669 41.7598 61.5481 41.6438 61.3073 41.5563C61.0666 41.4687 60.828 41.3987 60.5916 41.3462C60.1451 41.2411 59.8059 41.1382 59.5739 41.0376C59.3419 40.9369 59.2259 40.764 59.2259 40.5188C59.2259 40.2737 59.331 40.0986 59.5411 39.9936C59.7512 39.8885 59.9832 39.836 60.2371 39.836C60.526 39.836 60.793 39.9038 61.0381 40.0395C61.2832 40.1752 61.4758 40.335 61.6159 40.5188L62.6402 39.6127C62.3863 39.2888 62.0427 39.0481 61.6093 38.8905C61.176 38.7329 60.7317 38.6541 60.2764 38.6541C59.9613 38.6541 59.6549 38.6935 59.3572 38.7723C59.0596 38.8511 58.7925 38.9715 58.5562 39.1334C58.3198 39.2954 58.1294 39.5033 57.9849 39.7572C57.8405 40.0111 57.7683 40.3131 57.7683 40.6633C57.7683 40.961 57.8208 41.2105 57.9258 41.4118C58.0309 41.6132 58.171 41.7817 58.3461 41.9174C58.5211 42.0531 58.7203 42.1625 58.9436 42.2457C59.1668 42.3289 59.3966 42.3967 59.633 42.4492C60.1145 42.563 60.4756 42.6769 60.7164 42.7907C60.9571 42.9045 61.0775 43.0927 61.0775 43.3553C61.0775 43.4954 61.0469 43.6136 60.9856 43.7099C60.9243 43.8062 60.8433 43.8828 60.7426 43.9397C60.642 43.9966 60.5325 44.0382 60.4143 44.0645C60.2961 44.0907 60.1801 44.1039 60.0663 44.1039C59.7249 44.1039 59.4141 44.0294 59.134 43.8806C58.8538 43.7318 58.6262 43.5436 58.4511 43.3159L57.4137 44.2877C57.7201 44.6204 58.1053 44.8765 58.5693 45.0559C59.0333 45.2354 59.5104 45.3251 60.0007 45.3251ZM66.2385 45.2726C66.4136 45.2726 66.5974 45.2573 66.79 45.2266C66.9826 45.196 67.149 45.1544 67.289 45.1019L67.2365 43.8675C67.1402 43.9113 67.0308 43.9441 66.9082 43.966C66.7856 43.9879 66.6718 43.9988 66.5668 43.9988C66.2166 43.9988 65.9912 43.9069 65.8905 43.723C65.7898 43.5392 65.7395 43.3072 65.7395 43.027V40.0986H67.3153V38.838H65.7395V37.0126H64.1899V38.838H63.0868V40.0986H64.1899V43.0402C64.1899 43.3466 64.2184 43.6333 64.2753 43.9003C64.3322 44.1673 64.4372 44.4037 64.5904 44.6094C64.7436 44.8152 64.9516 44.9771 65.2142 45.0953C65.4768 45.2135 65.8183 45.2726 66.2385 45.2726ZM71.4783 45.3251C72.6601 45.3251 73.5619 44.9049 74.1834 44.0645L73.1329 43.224C72.9578 43.4779 72.7345 43.6771 72.4632 43.8215C72.1918 43.966 71.8591 44.0382 71.4651 44.0382C71.2375 44.0382 71.0186 43.9988 70.8085 43.92C70.5984 43.8412 70.4102 43.734 70.2439 43.5983C70.0775 43.4626 69.944 43.3006 69.8433 43.1124C69.7427 42.9242 69.6836 42.7163 69.6661 42.4886H74.4592C74.468 42.4186 74.4723 42.3486 74.4723 42.2785V42.0684C74.4723 41.4994 74.3957 41.0025 74.2425 40.5779C74.0893 40.1533 73.877 39.7988 73.6056 39.5143C73.3342 39.2297 73.0125 39.0152 72.6404 38.8708C72.2684 38.7263 71.8635 38.6541 71.4257 38.6541C70.953 38.6541 70.5131 38.7351 70.106 38.8971C69.6989 39.059 69.3465 39.2866 69.0489 39.5799C68.7512 39.8732 68.517 40.2278 68.3463 40.6436C68.1756 41.0594 68.0902 41.5212 68.0902 42.029C68.0902 42.5455 68.1756 43.0073 68.3463 43.4144C68.517 43.8215 68.7534 44.1651 69.0554 44.4453C69.3575 44.7254 69.7142 44.9421 70.1257 45.0953C70.5371 45.2485 70.988 45.3251 71.4783 45.3251ZM72.8965 41.3593H69.6661C69.7011 40.9128 69.8827 40.5473 70.211 40.2628C70.5393 39.9782 70.9398 39.836 71.4126 39.836C71.6665 39.836 71.8875 39.8776 72.0758 39.9607C72.264 40.0439 72.4194 40.1555 72.5419 40.2956C72.6645 40.4357 72.7542 40.5976 72.8111 40.7815C72.8681 40.9653 72.8965 41.1579 72.8965 41.3593ZM77.5716 45.1413V41.7664C77.5716 41.6526 77.5935 41.4994 77.6373 41.3068C77.681 41.1142 77.7642 40.9259 77.8868 40.7421C78.0093 40.5582 78.1801 40.4007 78.3989 40.2693C78.6178 40.138 78.9067 40.0724 79.2656 40.0724C79.3357 40.0724 79.4079 40.0767 79.4823 40.0855C79.5567 40.0942 79.6465 40.1118 79.7515 40.138V38.6935C79.699 38.676 79.6377 38.6651 79.5677 38.6607C79.4976 38.6563 79.432 38.6541 79.3707 38.6541C78.9505 38.6541 78.5828 38.7679 78.2676 38.9955C77.9524 39.2232 77.7073 39.5208 77.5322 39.8885H77.5059V38.838H75.9958V45.1413H77.5716ZM83.2579 45.3251C83.7044 45.3251 84.1224 45.2288 84.512 45.0362C84.9015 44.8436 85.2058 44.5635 85.4246 44.1958H85.4509V45.1413H86.9479V35.2135H85.3721V39.639H85.3327C85.2539 39.5339 85.1532 39.4245 85.0307 39.3107C84.9081 39.1969 84.7615 39.0918 84.5908 38.9955C84.42 38.8992 84.2209 38.8183 83.9933 38.7526C83.7656 38.6869 83.5074 38.6541 83.2185 38.6541C82.772 38.6541 82.3605 38.7395 81.9841 38.9102C81.6076 39.0809 81.2837 39.3151 81.0123 39.6127C80.7409 39.9104 80.5308 40.2606 80.382 40.6633C80.2332 41.066 80.1587 41.4994 80.1587 41.9634C80.1587 42.4273 80.231 42.8629 80.3754 43.27C80.5199 43.6771 80.7256 44.0316 80.9926 44.3337C81.2596 44.6357 81.5835 44.8765 81.9644 45.0559C82.3452 45.2354 82.7764 45.3251 83.2579 45.3251ZM83.573 44.0119C83.2666 44.0119 82.9996 43.9507 82.772 43.8281C82.5444 43.7055 82.3561 43.5479 82.2073 43.3553C82.0585 43.1627 81.9469 42.9439 81.8725 42.6987C81.798 42.4536 81.7608 42.2085 81.7608 41.9634C81.7608 41.7182 81.798 41.4753 81.8725 41.2345C81.9469 40.9938 82.0585 40.7771 82.2073 40.5845C82.3561 40.3919 82.5444 40.2365 82.772 40.1183C82.9996 40.0001 83.2666 39.941 83.573 39.941C83.8619 39.941 84.1202 40.0023 84.3478 40.1249C84.5754 40.2475 84.7702 40.405 84.9322 40.5976C85.0941 40.7902 85.2167 41.0091 85.2999 41.2542C85.3831 41.4994 85.4246 41.7445 85.4246 41.9896C85.4246 42.2347 85.3831 42.4777 85.2999 42.7184C85.2167 42.9592 85.0941 43.1759 84.9322 43.3685C84.7702 43.5611 84.5754 43.7165 84.3478 43.8347C84.1202 43.9528 83.8619 44.0119 83.573 44.0119ZM90.7826 45.2989C91.2291 45.2989 91.6274 45.2091 91.9776 45.0297C92.3278 44.8502 92.5817 44.6204 92.7393 44.3402H92.7787V45.1413H94.2494V41.3068C94.2494 40.9916 94.2078 40.6764 94.1247 40.3613C94.0415 40.0461 93.8949 39.7616 93.6848 39.5077C93.4746 39.2538 93.1879 39.0481 92.8246 38.8905C92.4613 38.7329 91.9995 38.6541 91.4392 38.6541C90.9577 38.6541 90.4828 38.7373 90.0144 38.9036C89.546 39.07 89.1324 39.3195 88.7734 39.6521L89.5876 40.6108C89.789 40.4094 90.0428 40.2387 90.3492 40.0986C90.6557 39.9585 90.9752 39.8885 91.3079 39.8885C91.7018 39.8885 92.0411 39.9826 92.3256 40.1708C92.6101 40.3591 92.7524 40.6502 92.7524 41.0441V41.2017C92.2621 41.2017 91.7609 41.2258 91.2488 41.2739C90.7366 41.3221 90.2705 41.4206 89.8502 41.5694C89.43 41.7182 89.0864 41.9327 88.8194 42.2129C88.5524 42.493 88.4189 42.8695 88.4189 43.3422C88.4189 43.7099 88.4955 44.0185 88.6487 44.268C88.8019 44.5175 88.9945 44.7189 89.2265 44.8721C89.4585 45.0253 89.7123 45.1347 89.9881 45.2004C90.2639 45.266 90.5287 45.2989 90.7826 45.2989ZM91.0978 44.1039C90.9664 44.1039 90.8351 44.0907 90.7038 44.0645C90.5725 44.0382 90.4543 43.9944 90.3492 43.9331C90.2442 43.8719 90.1588 43.7909 90.0932 43.6902C90.0275 43.5895 89.9947 43.4648 89.9947 43.3159C89.9947 43.0796 90.0735 42.8935 90.2311 42.7578C90.3886 42.6221 90.5856 42.5171 90.822 42.4427C91.0584 42.3683 91.3166 42.3201 91.5968 42.2982C91.8769 42.2763 92.1439 42.2654 92.3978 42.2654H92.7524V42.4886C92.7524 42.9876 92.6123 43.3816 92.3322 43.6705C92.052 43.9594 91.6406 44.1039 91.0978 44.1039ZM97.6639 45.1413V41.6745C97.6639 41.4643 97.6923 41.2564 97.7492 41.0507C97.8061 40.845 97.8893 40.6633 97.9987 40.5057C98.1082 40.3481 98.2504 40.219 98.4255 40.1183C98.6006 40.0176 98.8063 39.9673 99.0427 39.9673C99.4454 39.9673 99.7409 40.0964 99.9291 40.3547C100.117 40.613 100.211 40.9391 100.211 41.333V45.1413H101.787V41.7007C101.787 41.4994 101.814 41.2958 101.866 41.0901C101.919 40.8843 102.002 40.6983 102.116 40.532C102.229 40.3656 102.374 40.2299 102.549 40.1249C102.724 40.0198 102.934 39.9673 103.179 39.9673C103.433 39.9673 103.637 40.0198 103.79 40.1249C103.943 40.2299 104.063 40.3634 104.151 40.5254C104.239 40.6874 104.295 40.869 104.322 41.0704C104.348 41.2717 104.361 41.4643 104.361 41.6482V45.1413H105.937V41.2017C105.937 40.8778 105.893 40.5626 105.806 40.2562C105.718 39.9498 105.58 39.6784 105.392 39.442C105.204 39.2057 104.963 39.0152 104.67 38.8708C104.376 38.7263 104.024 38.6541 103.613 38.6541C103.14 38.6541 102.728 38.757 102.378 38.9627C102.028 39.1684 101.748 39.4639 101.538 39.8491C101.363 39.4902 101.113 39.2013 100.789 38.9824C100.465 38.7635 100.058 38.6541 99.568 38.6541C99.3141 38.6541 99.0821 38.6869 98.872 38.7526C98.6619 38.8183 98.4759 38.908 98.3139 39.0218C98.1519 39.1356 98.0119 39.2626 97.8937 39.4026C97.7755 39.5427 97.6814 39.6915 97.6113 39.8491H97.5851V38.838H96.088V45.1413H97.6639Z" fill="#EC0000"/>
<path fill-rule="evenodd" clip-rule="evenodd" d="M19.1294 57.079L22.4781 53.7136L19.1294 50.3481L21.3619 48.1045L24.7106 51.4699L28.0593 48.1045L30.2917 50.3481L26.943 53.7136L30.2917 57.079L28.0593 59.3226L24.7106 55.9572L21.3619 59.3226L19.1294 57.079Z" fill="#EC0000"/>
<path fill-rule="evenodd" clip-rule="evenodd" d="M19.1294 30.1356L22.4781 26.7702L19.1294 23.4048L21.3619 21.1611L24.7106 24.5266L28.0593 21.1611L30.2917 23.4048L26.943 26.7702L30.2917 30.1356L28.0593 32.3793L24.7106 29.0138L21.3619 32.3793L19.1294 30.1356Z" fill="#EC0000"/>
<path fill-rule="evenodd" clip-rule="evenodd" d="M19.1294 43.619L22.4781 40.2536L19.1294 36.8882L21.3619 34.6445L24.7106 38.01L28.0593 34.6445L30.2917 36.8882L26.943 40.2536L30.2917 43.619L28.0593 45.8627L24.7106 42.4972L21.3619 45.8627L19.1294 43.619Z" fill="#EC0000"/>
</g>
<defs>
<clipPath id="clip0_623_1660">
<rect width="87.9268" height="38.8248" fill="white" transform="translate(19.1304 20.5879)"/>
</clipPath>
</defs>
</svg>
