<svg width="172" height="80" viewBox="0 0 172 80" fill="none" xmlns="http://www.w3.org/2000/svg">
<g clip-path="url(#clip0_620_1596)">
<path d="M20.5601 47.7131C21.0241 45.3931 21.4881 43.073 21.8941 40.695C24.0981 40.695 26.2441 40.637 28.4482 40.753C27.9842 42.841 27.5202 44.929 27.1141 47.0171C26.8241 48.6411 29.4922 48.5251 29.7242 46.9591C30.0722 44.639 30.5362 42.377 30.9422 40.057C31.0002 39.883 31.0582 39.651 31.0582 39.419C31.4062 37.505 31.6962 35.5909 31.9282 33.6769C32.1022 32.2269 29.7822 32.5169 29.6662 33.7929C29.4922 35.3589 29.2022 36.867 28.9122 38.433C26.7081 38.491 24.5041 38.491 22.3001 38.491C22.5321 37.215 22.7641 35.8809 23.0541 34.6049C23.3441 33.1549 21.0821 32.8069 20.7921 34.1409C19.8641 38.491 19.0521 42.783 18.124 47.1331C17.776 48.7571 20.2701 49.2211 20.5601 47.7131Z" fill="black"/>
<path d="M47.3562 48.178C51.5902 47.192 54.2003 42.2039 53.2143 38.0859C52.4023 34.6638 48.9222 32.3438 45.5002 32.6338C45.0362 32.6918 44.7462 32.8658 44.5142 33.1558C40.8601 34.3158 38.2501 38.5499 38.4821 42.2619C38.7721 46.554 43.2962 49.106 47.3562 48.178ZM44.8622 35.1858C45.0362 35.2438 45.2102 35.2438 45.3842 35.2438C50.8942 34.7798 52.5763 42.6679 48.0522 45.2779C45.3262 46.844 41.4401 45.1039 41.0341 42.0299C40.6861 39.5939 42.4841 36.2298 44.8622 35.1858Z" fill="black"/>
<path d="M61.7985 46.4955C62.6105 43.7114 62.8425 40.8114 63.2485 37.9694C64.3505 40.5214 65.5106 43.0154 66.7866 45.4514C67.2506 46.3795 68.5846 46.2055 69.1066 45.3934C70.7306 42.8414 72.4706 40.2894 74.2107 37.7374C73.8626 40.5214 73.5726 43.3054 73.1666 46.0315C72.9346 47.7135 75.6027 47.5975 75.8347 46.0315C76.4727 41.6234 76.9367 37.2154 77.4587 32.8073C77.6327 31.3573 75.6607 31.2993 75.0227 32.2273C72.7026 35.4753 70.3826 38.7814 68.2366 42.1454C66.6706 39.0714 65.2786 35.9393 64.0025 32.8073C63.5965 31.8213 61.8565 32.2273 61.6245 33.1553C60.6385 37.5054 60.5805 41.9714 59.7685 46.3215C59.4205 47.5395 61.5085 47.5395 61.7985 46.4955Z" fill="black"/>
<path d="M105.647 45.1046C105.879 43.6546 106.169 42.1466 106.401 40.6966C107.155 40.6966 107.967 40.5806 108.837 40.4066C109.533 42.1466 110.345 43.9446 111.389 45.5686C112.201 46.8447 114.173 45.6846 113.593 44.3506C112.897 42.7846 111.969 41.2766 111.157 39.7106C112.897 39.0146 114.347 37.9126 114.811 36.2885C115.333 34.4905 114.463 32.5765 112.897 31.5325C111.041 30.3145 108.489 30.6625 106.459 30.8945C106.227 30.8945 106.053 31.0105 105.879 31.0685C105.531 31.2425 105.241 31.5325 105.183 31.9965C104.719 36.4045 103.791 40.7546 103.095 45.1046C102.863 46.7287 105.415 46.5547 105.647 45.1046ZM107.445 32.9825C108.547 32.8665 109.707 32.8085 110.693 33.1565C112.143 33.6785 113.071 35.6505 111.621 36.6945C110.345 37.6806 108.489 37.9126 106.749 38.0866C107.039 36.4045 107.271 34.6645 107.445 32.9825Z" fill="black"/>
<path d="M85.7528 46.7853C88.1888 46.7853 90.6829 46.7853 93.1189 46.6113C94.6849 46.4953 95.0329 44.1173 93.2929 44.1173C91.3209 44.1753 89.2908 44.2333 87.3188 44.2333C87.5508 42.8413 87.7248 41.4493 87.8988 40.0573C88.8268 40.0573 89.6968 40.0573 90.6249 40.0573C92.1909 40.0573 92.4229 37.6212 90.7989 37.6792C89.9288 37.7372 89.0588 37.7952 88.1888 37.8532C88.3628 36.4032 88.5948 34.9532 88.7688 33.4452C90.6829 33.3872 92.5969 33.3872 94.5109 33.3872C96.0769 33.3872 96.3089 30.9512 94.6269 30.9512C92.3649 30.9512 90.1029 31.0672 87.8408 31.2412C87.1448 31.2992 86.7388 31.8212 86.6808 32.3432V32.4012C85.9848 36.7512 85.2308 41.1013 84.4768 45.4513C84.4188 46.2633 85.1728 46.7853 85.7528 46.7853Z" fill="black"/>
<path d="M128.21 46.0321C134.068 45.2781 134.358 35.94 134.648 31.5319C134.764 29.8499 132.038 29.9659 131.98 31.5899C131.864 33.562 131.632 35.534 131.284 37.506C130.936 39.246 130.472 42.3781 128.732 43.2481C127.746 43.7121 126.412 43.5381 125.6 42.9001C124.324 41.914 124.44 40.058 124.556 38.608C124.672 36.288 125.252 34.026 125.426 31.7059C125.542 30.3139 123.396 30.6039 123.28 31.8219C122.932 35.244 121.308 39.304 122.294 42.7261C122.932 45.2781 125.774 46.3221 128.21 46.0321Z" fill="black"/>
<path d="M152.744 30.7774C152.338 33.9675 151.932 37.2155 151.41 40.4055C149.438 37.0995 147.697 33.6775 145.667 30.3714C144.913 29.2114 143.347 29.8494 143.115 31.0674C142.361 35.4175 141.549 39.8835 141.259 44.2916C141.143 45.6836 143.289 45.4516 143.463 44.2336C143.985 41.1015 144.565 37.9695 145.087 34.8375C146.943 38.1435 148.625 41.5076 150.83 44.5816C151.41 45.4516 153.092 45.4516 153.382 44.2336C154.31 39.8255 154.89 35.2435 155.47 30.7194C155.644 29.0374 152.918 29.1534 152.744 30.7774Z" fill="black"/>
<path d="M152.801 52.9913C119.683 53.8033 86.5065 55.0793 53.3301 54.9633C46.8921 54.9633 40.512 55.0793 34.0739 55.4273C28.5059 55.7173 22.8798 55.7173 17.3697 56.1813C16.0357 56.2973 15.8617 58.3273 17.3117 58.4433C21.8938 58.7333 26.6498 58.2113 31.2319 57.9793C36.858 57.6893 42.484 57.3993 48.1101 57.3413C57.6802 57.2833 67.3083 57.2833 76.8784 57.1673C88.7105 56.9933 100.485 56.5873 112.317 56.4133C125.831 56.2393 139.287 55.7173 152.743 55.3693C154.193 55.3113 154.367 52.9333 152.801 52.9913Z" fill="black"/>
</g>
<defs>
<clipPath id="clip0_620_1596">
<rect width="139.202" height="29.0003" fill="white" transform="translate(16.2676 29.5)"/>
</clipPath>
</defs>
</svg>
