<svg width="113" height="80" viewBox="0 0 113 80" fill="none" xmlns="http://www.w3.org/2000/svg">
<g clip-path="url(#clip0_620_1634)">
<path d="M94.9926 18.2998H17.1948V61.6994H94.9926V18.2998Z" fill="#0052BA"/>
<path d="M17.1948 39.6309H55.4713L55.3352 41.8455L60.9561 39.6309H65.8185H75.5432H94.9926V61.6998H17.1948V39.6309Z" fill="#FFCD00"/>
<path d="M62.2395 35.0127C61.3647 35.0127 60.5824 35.4522 60.1055 36.1181L56.8839 40.6593C56.7649 40.8324 56.5661 40.9389 56.3537 40.9389C55.9959 40.9389 55.7042 40.646 55.7042 40.2864C55.7042 40.1532 55.744 40.0201 55.8103 39.9268L58.5278 35.8384C58.8063 35.4256 58.9654 34.9195 58.9654 34.3735C58.9654 32.9219 57.7988 31.75 56.3537 31.75H42.6733V34.3735H54.3919C54.3919 35.0927 53.8086 35.6919 53.0795 35.6919H42.6733C42.6733 36.6242 42.8722 37.5164 43.2168 38.3155H51.7671C51.7671 39.0346 51.1838 39.6338 50.4548 39.6338H43.9724C45.1655 41.2319 47.0611 42.2574 49.2087 42.2574H52.4299C52.7879 42.2574 53.0795 42.5504 53.0795 42.9099C53.0795 43.2695 52.7879 43.5625 52.4299 43.5625H49.2087L44.8341 50.1279H52.7481C56.3669 50.1279 59.4427 47.7574 60.5163 44.4814L61.9878 39.9934C62.4651 38.5419 63.3399 37.2634 64.4801 36.2912C64.0292 35.5321 63.1941 35.0127 62.2395 35.0127ZM62.2395 36.8239C61.9746 36.8239 61.749 36.5975 61.749 36.3312C61.749 36.0648 61.9746 35.8384 62.2395 35.8384C62.5048 35.8384 62.73 36.0648 62.73 36.3312C62.73 36.5975 62.518 36.8239 62.2395 36.8239Z" fill="white"/>
<path d="M61.0261 28.4224C62.0448 29.3512 63.227 29.2987 63.9073 28.9851C64.4095 25.7862 61.1432 25.6291 59.4468 25.9504C60.3134 26.5854 60.0194 27.5047 61.0261 28.4224Z" fill="white"/>
<path d="M63.0387 31.9075C63.9035 32.4149 64.6565 32.1559 65.0261 31.8336C64.6316 31.4943 64.9362 31.6191 64.0579 30.726C63.3554 30.0115 61.8912 30.3709 61.3369 30.8544C62.2487 30.9708 62.0355 31.3185 63.0387 31.9075Z" fill="white"/>
<path d="M64.9962 34.1097C64.333 34.4211 62.8202 34.6468 62.0718 33.0578C62.8494 32.8045 64.5224 32.6601 64.9962 34.1097Z" fill="white"/>
<path d="M65.3525 34.1247C66.4775 34.6924 68.4613 34.2803 69.0592 31.9156C66.2846 31.7037 66.3725 33.0622 65.3525 34.1247Z" fill="white"/>
<path d="M65.3855 30.1988C65.4489 31.0338 65.5042 31.4288 65.2622 31.7286C68.2045 30.5364 67.2947 27.989 66.4459 26.8936C66.3662 27.8801 66.1483 27.9407 65.8791 28.4582C65.7014 28.7999 65.2688 29.116 65.3855 30.1988Z" fill="white"/>
<path d="M65.0452 33.9329C65.535 32.0342 64.3649 29.925 63.7476 28.7627C65.3058 30.6296 65.6738 32.7897 65.3576 34.1097C64.7266 36.7427 64.4419 37.3893 65.1681 39.219L65.1635 39.3089C65.1506 39.5514 64.8181 39.6092 64.7243 39.3853C63.916 37.3215 64.5948 35.6784 65.0452 33.9329Z" fill="white"/>
</g>
<defs>
<clipPath id="clip0_620_1634">
<rect width="77.7978" height="43.3996" fill="white" transform="translate(17.1948 18.2998)"/>
</clipPath>
</defs>
</svg>
