<svg width="153" height="80" viewBox="0 0 153 80" fill="none" xmlns="http://www.w3.org/2000/svg">
<g clip-path="url(#clip0_631_1966)">
<path d="M26.5571 47.944H31.4629C32.5398 47.8134 33.3655 46.925 33.4171 45.8415V38.7662C33.4171 37.827 32.6557 37.0656 31.7164 37.0656C30.7772 37.0656 30.0158 37.827 30.0158 38.7662V43.263C30.0158 43.6022 29.8809 43.9274 29.6409 44.167C29.4008 44.4066 29.0753 44.5409 28.7361 44.5403H26.5141C26.0595 44.5415 25.6242 44.7245 25.3053 45.0484C24.9863 45.3723 24.8101 45.8103 24.8158 46.2648C24.8418 47.2055 25.6162 47.9521 26.5571 47.944Z" fill="#510098"/>
<path d="M28.7672 31.789H23.8614C22.7849 31.9185 21.959 32.8061 21.9072 33.8891V40.9644C21.9072 41.9036 22.6686 42.665 23.6079 42.665C24.5471 42.665 25.3085 41.9036 25.3085 40.9644V36.47C25.3085 35.7633 25.8814 35.1903 26.5882 35.1903H28.8103C29.2653 35.1897 29.7011 35.0071 30.0206 34.6831C30.3401 34.3591 30.5166 33.9207 30.5109 33.4658C30.4823 32.5257 29.7077 31.7808 28.7672 31.789Z" fill="#510098"/>
<path d="M29.5877 28.3663C33.5782 28.3702 36.8121 31.6041 36.8161 35.5946V49.4963C36.6518 50.4621 35.8745 51.2064 34.9025 51.3285H25.6698C21.6769 51.3272 18.4404 48.0907 18.4391 44.0978V30.6027C18.4384 30.0094 18.6739 29.4402 19.0934 29.0206C19.513 28.6011 20.0822 28.3656 20.6755 28.3663H29.5877ZM29.5877 24.965H20.6755C17.5615 24.965 15.0367 27.4887 15.0354 30.6027V44.0954C15.0354 49.9686 19.7966 54.7298 25.6698 54.7298H35.0891C37.7833 54.5091 39.9412 52.4063 40.2317 49.7188V35.5946C40.2317 32.773 39.1098 30.0671 37.1133 28.0732C35.1167 26.0794 32.4094 24.9612 29.5877 24.965Z" fill="#510098"/>
<path d="M53.2675 48.1401C52.0974 48.1309 50.9475 47.8344 49.9189 47.2767C48.8549 46.7203 47.9327 45.9274 47.2232 44.9589C47.0436 44.716 47.08 44.3761 47.3069 44.1768L48.5985 43.0334C48.7043 42.9386 48.8416 42.8866 48.9836 42.8875H49.0673C49.2361 42.9115 49.3858 43.0086 49.4764 43.153C49.9162 43.8599 50.518 44.4519 51.232 44.88C51.9135 45.2927 52.6956 45.5095 53.4924 45.5067C54.3487 45.5067 54.9897 45.3297 55.4059 44.9804C55.801 44.6401 56.015 44.1352 55.9847 43.6147C56.025 43.0568 55.7955 42.5134 55.3676 42.1532C54.8749 41.7609 54.0521 41.4022 52.9231 41.0864C49.6031 40.2708 47.9192 38.6945 47.9192 36.3744C47.9192 34.9392 48.3976 33.815 49.3544 33.0257C50.3111 32.2364 51.5501 31.8776 53.136 31.8776C54.2029 31.862 55.26 32.0834 56.2311 32.5258C57.1907 32.9903 58.0317 33.6676 58.69 34.5063C58.8877 34.7524 58.8549 35.111 58.6158 35.3172L57.3648 36.3768C57.2598 36.4657 57.1269 36.5148 56.9893 36.5155H56.92C56.7584 36.4955 56.6127 36.4088 56.5181 36.2763C56.1293 35.7177 55.6232 35.2508 55.0351 34.9081C54.4478 34.6092 53.7947 34.4628 53.136 34.4824C52.4853 34.4511 51.8419 34.6306 51.3014 34.9942C50.9011 35.2749 50.6713 35.74 50.6914 36.2285C50.6661 36.7267 50.8781 37.2076 51.2631 37.5249C51.7128 37.8956 52.5236 38.2233 53.6741 38.4984C55.2337 38.917 56.4607 39.5054 57.3361 40.2516C58.2786 41.0553 58.7569 42.1867 58.7569 43.6171C58.7667 44.4626 58.5207 45.2913 58.0513 45.9946C57.5674 46.7018 56.8909 47.2555 56.1019 47.59C55.2064 47.9708 54.2405 48.1582 53.2675 48.1401Z" fill="#510098"/>
<path d="M65.6552 48.1975C64.6466 48.2139 63.6531 47.9506 62.7849 47.4369C61.9455 46.9284 61.2634 46.1973 60.814 45.3249C60.3372 44.397 60.0957 43.3661 60.1108 42.323C60.0952 41.282 60.3324 40.2528 60.802 39.3236C61.248 38.45 61.9311 37.7197 62.7729 37.2163C63.631 36.7033 64.6149 36.4391 65.6145 36.4533C66.4507 36.4375 67.2761 36.6438 68.0064 37.0513C68.7089 37.4629 69.3253 38.0062 69.8219 38.6515C70.0176 38.9062 69.9718 39.2711 69.719 39.4695L68.6618 40.2971C68.5589 40.376 68.4328 40.4189 68.303 40.4191C68.2736 40.4215 68.244 40.4215 68.2145 40.4191C68.0567 40.3961 67.915 40.3097 67.8223 40.1799C67.241 39.3379 66.5187 38.9289 65.6145 38.9289C65.0924 38.9196 64.5791 39.0644 64.1387 39.3451C63.693 39.636 63.3369 40.0451 63.1102 40.5267C62.5988 41.668 62.5988 42.9733 63.1102 44.1146C63.333 44.6025 63.6896 45.0172 64.1387 45.3105C64.5791 45.5912 65.0924 45.736 65.6145 45.7267C66.0961 45.7468 66.5754 45.6499 67.0114 45.4445C67.4024 45.228 67.7431 44.9313 68.0112 44.5738C68.2021 44.3292 68.5509 44.2767 68.8053 44.4542L69.9271 45.2388C70.0601 45.331 70.1486 45.4745 70.1713 45.6348C70.194 45.7951 70.1489 45.9575 70.0467 46.0831C69.5275 46.7286 68.8747 47.2541 68.1332 47.6235C67.3641 48.0076 66.5149 48.2044 65.6552 48.1975Z" fill="#510098"/>
<path d="M76.4044 48.1975C75.4052 48.2106 74.4218 47.9474 73.5628 47.4369C72.7229 46.929 72.0405 46.1978 71.5919 45.3248C70.6585 43.4301 70.6541 41.2101 71.5799 39.3116C72.0246 38.4471 72.6992 37.7221 73.5293 37.2163C74.3843 36.7042 75.3648 36.44 76.3613 36.4533C77.1477 36.4432 77.9243 36.6281 78.6217 36.9914C78.8518 37.1131 79.0718 37.2531 79.2795 37.41V37.3694C79.2795 37.047 79.5408 36.7857 79.8631 36.7857H81.2982C81.6206 36.7857 81.8819 37.047 81.8819 37.3694V47.2766C81.8819 47.5989 81.6206 47.8602 81.2982 47.8602H79.8631C79.5408 47.8602 79.2795 47.5989 79.2795 47.2766V47.2407C79.0752 47.3944 78.8593 47.532 78.6336 47.6521C77.9481 48.0181 77.1815 48.2056 76.4044 48.1975ZM76.3613 38.9265C75.8446 38.9155 75.3363 39.0596 74.9023 39.3403C74.4605 39.6323 74.1066 40.0391 73.8786 40.5171C73.6158 41.0747 73.4849 41.6852 73.4958 42.3015C73.4836 42.9289 73.6153 43.5508 73.8809 44.1193C74.1034 44.6053 74.4571 45.0195 74.9023 45.3153C75.3368 45.595 75.8447 45.739 76.3613 45.7291C76.8905 45.7403 77.4112 45.5956 77.8587 45.3129C78.3078 45.0196 78.6644 44.6049 78.8872 44.1169C79.3986 42.9756 79.3986 41.6703 78.8872 40.5291C78.6596 40.0481 78.3037 39.6392 77.8587 39.3475C77.4118 39.0631 76.891 38.9166 76.3613 38.9265Z" fill="#510098"/>
<path d="M85.7711 31.88H84.3312C84.0089 31.88 83.7476 32.1413 83.7476 32.4636V47.2264C83.7476 47.5487 84.0089 47.81 84.3312 47.81H85.7711C86.0934 47.81 86.3547 47.5487 86.3547 47.2264V32.4636C86.3547 32.1413 86.0934 31.88 85.7711 31.88Z" fill="#510098"/>
<path d="M109.477 47.8602C109.223 47.86 108.998 47.6957 108.92 47.4536L107.042 41.5384L105.011 47.4656C104.929 47.7025 104.705 47.861 104.454 47.8602H103.019C102.767 47.8593 102.545 47.6974 102.466 47.4584L99.1919 37.5511C99.1054 37.2913 99.212 37.0063 99.4479 36.8671C99.5429 36.8118 99.6513 36.7836 99.7612 36.7856H101.27C101.523 36.787 101.746 36.95 101.823 37.19L103.813 43.3587L105.837 37.1876C105.914 36.9481 106.137 36.7859 106.389 36.7856H107.803C108.057 36.7847 108.282 36.9497 108.358 37.1924L110.302 43.2893L112.264 37.19C112.342 36.9461 112.57 36.782 112.826 36.7856H114.192C114.269 36.7846 114.346 36.7984 114.419 36.8264C114.701 36.9408 114.848 37.2534 114.756 37.544L111.539 47.4512C111.461 47.692 111.237 47.8553 110.984 47.8554L109.477 47.8602Z" fill="#510098"/>
<path d="M120.614 48.1975C119.614 48.2109 118.63 47.9477 117.77 47.4369C116.931 46.9283 116.248 46.1973 115.799 45.3248C114.869 43.4293 114.864 41.2108 115.787 39.3116C116.232 38.4471 116.906 37.7221 117.736 37.2163C118.592 36.7039 119.574 36.4397 120.571 36.4533C121.355 36.4469 122.128 36.6342 122.822 36.9986C123.052 37.1206 123.271 37.2606 123.479 37.4172V37.3765C123.477 37.2197 123.539 37.0686 123.649 36.9575C123.76 36.8463 123.911 36.7844 124.068 36.7857H125.503C125.825 36.7857 126.087 37.047 126.087 37.3694V47.2766C126.085 47.5984 125.825 47.8589 125.503 47.8602H124.068C123.746 47.8589 123.485 47.5984 123.484 47.2766V47.2407C123.281 47.3944 123.066 47.532 122.841 47.6521C122.156 48.0174 121.39 48.2049 120.614 48.1975ZM120.571 38.9265C120.053 38.9166 119.545 39.0606 119.109 39.3403C118.668 39.6317 118.314 40.0388 118.088 40.5171C117.823 41.0741 117.692 41.6849 117.703 42.3015C117.691 42.9289 117.822 43.5508 118.088 44.1193C118.31 44.6053 118.664 45.0195 119.109 45.3153C119.545 45.5949 120.053 45.7389 120.571 45.729C121.099 45.7403 121.619 45.5955 122.066 45.3129C122.515 45.0203 122.872 44.6053 123.094 44.1169C123.606 42.9756 123.606 41.6703 123.094 40.5291C122.868 40.0474 122.512 39.6383 122.066 39.3475C121.62 39.0631 121.1 38.9167 120.571 38.9265Z" fill="#510098"/>
<path d="M97.0083 44.3609C96.7358 44.1686 96.3613 44.2175 96.1472 44.4733C95.8845 44.8053 95.5684 45.0915 95.212 45.32C94.6496 45.6048 94.0241 45.7422 93.3942 45.7195C92.6181 45.7613 91.867 45.4384 91.3634 44.8464C90.9629 44.3742 90.6932 43.8051 90.5813 43.196H98.0751C98.3753 43.1973 98.6267 42.9688 98.654 42.6698C98.6707 42.5071 98.6779 42.2799 98.6779 41.9977C98.6887 41.0217 98.4543 40.0586 97.9962 39.1968C97.5508 38.367 96.8897 37.6728 96.0827 37.1876C95.2639 36.6936 94.324 36.4369 93.3679 36.4461C92.3715 36.4355 91.3918 36.7022 90.5382 37.2163C89.7047 37.7264 89.0297 38.4586 88.5888 39.3307C88.1209 40.2604 87.8845 41.2894 87.9 42.3301C87.8841 43.3731 88.1247 44.4039 88.6008 45.332C89.0502 46.2045 89.7323 46.9355 90.5717 47.444C91.4399 47.9577 92.4334 48.221 93.442 48.2047C94.482 48.2347 95.5121 47.9949 96.4319 47.5086C97.1115 47.1311 97.7085 46.6212 98.1875 46.0089C98.2952 45.8692 98.3411 45.6915 98.3144 45.5171C98.2878 45.3427 98.1909 45.1868 98.0464 45.0856L97.0083 44.3609ZM91.5381 39.6345C92.0254 39.1494 92.6928 38.8894 93.3798 38.9169C94.1787 38.9169 94.7815 39.1178 95.224 39.5316C95.5799 39.8928 95.8283 40.3458 95.9415 40.84H90.7607C90.925 40.3844 91.1909 39.9722 91.5381 39.6345Z" fill="#510098"/>
<path d="M137.797 37.0369C137.686 36.8838 137.508 36.7945 137.319 36.7977H135.965C135.724 36.7982 135.509 36.9464 135.422 37.1708L132.621 44.392L129.961 37.1517C129.875 36.9291 129.66 36.7828 129.421 36.7833H127.916C127.724 36.7845 127.545 36.8814 127.438 37.0417C127.33 37.202 127.309 37.4053 127.381 37.5846L131.284 47.8698C131.222 48.2486 131.02 48.5901 130.717 48.8265C130.351 49.0657 129.66 49.1016 129.282 49.1255C128.948 49.1457 128.687 49.4223 128.687 49.757V50.7472C128.687 50.9151 128.753 51.0761 128.872 51.1946C128.991 51.3131 129.153 51.3793 129.32 51.3787C129.93 51.3787 130.909 51.4385 131.672 51.0343C133.243 50.2043 133.478 49.1758 133.92 48.0061L137.864 37.575C137.932 37.3955 137.907 37.1944 137.797 37.0369Z" fill="#510098"/>
</g>
<defs>
<clipPath id="clip0_631_1966">
<rect width="122.944" height="30.4432" fill="white" transform="translate(14.9971 24.7784)"/>
</clipPath>
</defs>
</svg>
