<svg width="172" height="80" viewBox="0 0 172 80" fill="none" xmlns="http://www.w3.org/2000/svg">
<path d="M62.832 49.1279L64.4124 45.4864C66.1203 46.7508 68.3889 47.4083 70.6321 47.4083C72.289 47.4083 73.3341 46.7761 73.3341 45.8151C73.3086 43.1346 63.4183 45.2335 63.3418 38.5068C63.3163 35.0929 66.3752 32.4629 70.7086 32.4629C73.2831 32.4629 75.8576 33.0951 77.6929 34.5365L76.2145 38.2539C74.5321 37.1918 72.4419 36.4332 70.4537 36.4332C69.1027 36.4332 68.2105 37.0654 68.2105 37.8746C68.236 40.5046 78.2027 39.0632 78.3047 45.4864C78.3047 48.9762 75.3223 51.4292 71.0399 51.4292C67.9046 51.4292 65.0242 50.6958 62.832 49.1279Z" fill="black"/>
<path d="M123.473 44.1714C122.683 45.537 121.205 46.4726 119.497 46.4726C116.973 46.4726 114.934 44.4496 114.934 41.946C114.934 39.4425 116.973 37.4194 119.497 37.4194C121.205 37.4194 122.683 38.3551 123.473 39.7206L127.832 37.3183C126.201 34.4354 123.066 32.4629 119.497 32.4629C114.22 32.4629 109.938 36.7113 109.938 41.946C109.938 47.1807 114.22 51.4292 119.497 51.4292C123.091 51.4292 126.201 49.482 127.832 46.5738L123.473 44.1714Z" fill="black"/>
<path d="M85.952 24.5986H80.4971V51.0755H85.952V24.5986Z" fill="black"/>
<path d="M129.974 24.5986V51.0755H135.429V43.135L141.903 51.0755H148.887L140.654 41.643L148.276 32.8426H141.597L135.429 40.151V24.5986H129.974Z" fill="black"/>
<path d="M102.163 44.222C101.373 45.5117 99.7416 46.4726 97.9063 46.4726C95.3827 46.4726 93.3435 44.4496 93.3435 41.946C93.3435 39.4425 95.3827 37.4194 97.9063 37.4194C99.7416 37.4194 101.373 38.4309 102.163 39.7459V44.222ZM102.163 32.8422V34.9917C101.271 33.4997 99.0533 32.4629 96.7337 32.4629C91.9415 32.4629 88.1689 36.6608 88.1689 41.9207C88.1689 47.1807 91.9415 51.4292 96.7337 51.4292C99.0533 51.4292 101.271 50.3923 102.163 48.9003V51.0498H107.618V32.8422H102.163Z" fill="black"/>
<path d="M29.3773 44.1974C29.3773 46.0435 27.8853 47.5355 26.0392 47.5355C24.1932 47.5355 22.7012 46.0435 22.7012 44.1974C22.7012 42.3514 24.1932 40.8594 26.0392 40.8594H29.3773V44.1974Z" fill="#E01E5A"/>
<path d="M31.0469 44.1974C31.0469 42.3514 32.5389 40.8594 34.3849 40.8594C36.231 40.8594 37.723 42.3514 37.723 44.1974V52.5426C37.723 54.3886 36.231 55.8807 34.3849 55.8807C32.5389 55.8807 31.0469 54.3886 31.0469 52.5426V44.1974Z" fill="#E01E5A"/>
<path d="M34.3849 30.7953C32.5389 30.7953 31.0469 29.3033 31.0469 27.4572C31.0469 25.6112 32.5389 24.1191 34.3849 24.1191C36.231 24.1191 37.723 25.6112 37.723 27.4572V30.7953H34.3849Z" fill="#36C5F0"/>
<path d="M34.3843 32.4902C36.2303 32.4902 37.7223 33.9822 37.7223 35.8283C37.7223 37.6743 36.2303 39.1664 34.3843 39.1664H26.0138C24.1678 39.1664 22.6758 37.6743 22.6758 35.8283C22.6758 33.9822 24.1678 32.4902 26.0138 32.4902H34.3843Z" fill="#36C5F0"/>
<path d="M47.7607 35.8283C47.7607 33.9822 49.2528 32.4902 51.0988 32.4902C52.9449 32.4902 54.4369 33.9822 54.4369 35.8283C54.4369 37.6743 52.9449 39.1664 51.0988 39.1664H47.7607V35.8283Z" fill="#2EB67D"/>
<path d="M46.0912 35.8276C46.0912 37.6737 44.5992 39.1657 42.7531 39.1657C40.9071 39.1657 39.415 37.6737 39.415 35.8276V27.4572C39.415 25.6112 40.9071 24.1191 42.7531 24.1191C44.5992 24.1191 46.0912 25.6112 46.0912 27.4572V35.8276Z" fill="#2EB67D"/>
<path d="M42.7531 49.2051C44.5992 49.2051 46.0912 50.6971 46.0912 52.5431C46.0912 54.3892 44.5992 55.8812 42.7531 55.8812C40.9071 55.8812 39.415 54.3892 39.415 52.5431V49.2051H42.7531Z" fill="#ECB22E"/>
<path d="M42.7531 47.5355C40.9071 47.5355 39.415 46.0435 39.415 44.1974C39.415 42.3514 40.9071 40.8594 42.7531 40.8594H51.1235C52.9696 40.8594 54.4616 42.3514 54.4616 44.1974C54.4616 46.0435 52.9696 47.5355 51.1235 47.5355H42.7531Z" fill="#ECB22E"/>
</svg>
