<?xml version="1.0" encoding="UTF-8" standalone="no" ?>
<!DOCTYPE svg PUBLIC "-//W3C//DTD SVG 1.1//EN" "http://www.w3.org/Graphics/SVG/1.1/DTD/svg11.dtd">
<svg xmlns="http://www.w3.org/2000/svg" xmlns:xlink="http://www.w3.org/1999/xlink" version="1.1" width="110" height="70" viewBox="0 0 110 70" xml:space="preserve">
<desc>Created with Fabric.js 3.6.3</desc>
<defs>
</defs>
<g transform="matrix(1 0 0 1 53.5 34)"  >
<g style=""   >
		<g transform="matrix(0.71 0 0 0.71 -12.75 -13.82)" id="body_1"  >
<path style="stroke: none; stroke-width: 1; stroke-dasharray: none; stroke-linecap: butt; stroke-dashoffset: 0; stroke-linejoin: miter; stroke-miterlimit: 4; fill: rgb(24,30,33); fill-rule: nonzero; opacity: 1;"  transform=" translate(-57.13, -15.63)" d="M 62.0231 10.3066 L 58.6715 10.3066 L 58.6715 23.5716 L 55.587 23.5716 L 55.587 10.3066 L 52.2333 10.3066 L 52.2333 7.67871 L 62.0231 7.67871 L 62.0231 10.3066 z" stroke-linecap="round" />
</g>
		<g transform="matrix(0.71 0 0 0.71 -4.97 -13.82)" id="body_1"  >
<path style="stroke: none; stroke-width: 1; stroke-dasharray: none; stroke-linecap: butt; stroke-dashoffset: 0; stroke-linejoin: miter; stroke-miterlimit: 4; fill: rgb(24,30,33); fill-rule: nonzero; opacity: 1;"  transform=" translate(-68.03, -15.63)" d="M 66.2724 7.67871 L 66.2724 13.755 L 69.8027 13.755 L 69.8027 7.67871 L 72.8436 7.67871 L 72.8436 23.5716 L 69.8148 23.5716 L 69.8148 16.5149 L 66.2724 16.5149 L 66.2724 23.5716 L 63.2255 23.5716 L 63.2255 7.67871 L 66.2724 7.67871 z" stroke-linecap="round" />
</g>
		<g transform="matrix(0.71 0 0 0.71 4.04 -13.82)" id="body_1"  >
<path style="stroke: none; stroke-width: 1; stroke-dasharray: none; stroke-linecap: butt; stroke-dashoffset: 0; stroke-linejoin: miter; stroke-miterlimit: 4; fill: rgb(24,30,33); fill-rule: nonzero; opacity: 1;"  transform=" translate(-80.66, -15.63)" d="M 85.308 10.3087 L 79.1917 10.3087 L 79.1917 14.0448 L 84.9551 14.0448 L 84.9551 16.6727 L 79.21 16.6727 L 79.21 20.9416 L 85.5532 20.9416 L 85.5532 23.5716 L 75.7635 23.5716 L 75.7635 7.67871 L 85.2805 7.67871 L 85.308 10.3087 z" stroke-linecap="round" />
</g>
		<g transform="matrix(0.71 0 0 0.71 -12.38 2.64)" id="body_1"  >
<path style="stroke: none; stroke-width: 1; stroke-dasharray: none; stroke-linecap: butt; stroke-dashoffset: 0; stroke-linejoin: miter; stroke-miterlimit: 4; fill: rgb(24,30,33); fill-rule: nonzero; opacity: 1;"  transform=" translate(-57.64, -38.7)" d="M 55.5313 42.425 C 55.5291 42.7892 55.5596 43.1534 55.6269 43.513 C 55.6747 43.8107 55.7898 44.0947 55.9637 44.3398 C 56.1331 44.5689 56.3547 44.7498 56.6067 44.862 C 56.9435 45.0018 57.3019 45.0659 57.6626 45.0521 C 58.1557 45.0544 58.6315 44.8735 59.0117 44.5437 C 59.4375 44.1428 59.6613 43.5542 59.6157 42.9541 C 59.6222 42.6174 59.5722 42.283 59.4679 41.9624 C 59.3615 41.6761 59.1942 41.4195 58.9791 41.2088 C 58.7119 40.9546 58.4099 40.7507 58.0819 40.5973 C 57.656 40.382 57.2172 40.1919 56.7675 40.0338 C 56.1005 39.8185 55.4531 39.5391 54.8361 39.1978 C 54.3538 38.9161 53.9193 38.5565 53.5456 38.1305 C 53.1915 37.7274 52.9265 37.2464 52.7679 36.7241 C 52.5897 36.1241 52.505 35.4988 52.5159 34.8689 C 52.5159 33.1809 52.959 31.9211 53.8498 31.0943 C 54.8883 30.2125 56.1983 29.7704 57.5279 29.8506 C 58.2035 29.8414 58.8792 29.9262 59.5331 30.1002 C 60.111 30.2491 60.6541 30.524 61.1234 30.9088 C 61.5753 31.2935 61.9316 31.7837 62.1684 32.3426 C 62.4291 33.0068 62.5573 33.7168 62.5421 34.436 L 62.5421 34.436 L 62.5421 34.9193 L 59.3897 34.9193 C 59.4288 34.2642 59.2876 33.6115 58.9856 33.0411 C 58.6771 32.5739 58.1557 32.3151 57.6191 32.3609 C 57.3106 32.354 57.0043 32.409 56.7153 32.5258 C 56.4937 32.6266 56.296 32.7755 56.1375 32.9678 C 55.9897 33.1511 55.8898 33.371 55.8398 33.6046 C 55.7877 33.8497 55.7616 34.097 55.7616 34.3467 C 55.7486 34.8116 55.8572 35.2697 56.0788 35.6728 C 56.4177 36.1424 56.8826 36.4928 57.4127 36.6829 L 57.4127 36.6829 L 59.9893 37.8327 C 60.5129 38.0755 61.0126 38.371 61.4797 38.7214 C 61.8403 39.0031 62.1575 39.3421 62.4182 39.7269 C 62.6507 40.0865 62.8158 40.4873 62.9092 40.9088 C 63.0026 41.3829 63.0483 41.8662 63.0439 42.3494 C 63.0439 44.1612 62.5486 45.4713 61.5557 46.2844 C 60.35 47.1891 58.89 47.6357 57.4127 47.5533 C 55.5639 47.5533 54.2495 47.1341 53.45 46.2844 C 52.5941 45.2835 52.1639 43.9573 52.2573 42.6151 L 52.2573 42.6151 L 52.2573 41.9349 L 55.5183 41.9349 L 55.5313 42.425 z" stroke-linecap="round" />
</g>
		<g transform="matrix(0.71 0 0 0.71 -3.68 2.62)" id="body_1"  >
<path style="stroke: none; stroke-width: 1; stroke-dasharray: none; stroke-linecap: butt; stroke-dashoffset: 0; stroke-linejoin: miter; stroke-miterlimit: 4; fill: rgb(24,30,33); fill-rule: nonzero; opacity: 1;"  transform=" translate(-69.84, -38.67)" d="M 67.6776 41.6493 C 67.7059 42.3135 67.8123 42.9708 67.9948 43.6053 C 68.0969 44.0336 68.3228 44.4184 68.6379 44.707 C 68.9833 44.9521 69.3961 45.0735 69.811 45.0528 C 70.2238 45.0735 70.6344 44.9498 70.9777 44.707 C 71.3057 44.423 71.5447 44.0382 71.6598 43.6053 C 71.8402 42.9708 71.9466 42.3135 71.977 41.6493 C 72.027 40.8407 72.0531 39.8719 72.0531 38.7221 C 72.0531 37.5746 72.0531 36.5966 71.977 35.7995 C 71.9444 35.1353 71.838 34.4756 71.6598 33.8389 C 71.5469 33.4014 71.3079 33.0143 70.9777 32.728 C 70.6344 32.4853 70.2238 32.3639 69.811 32.3845 C 69.3961 32.3616 68.9833 32.4853 68.6379 32.728 C 68.3207 33.0212 68.0947 33.406 67.9948 33.8389 C 67.8123 34.4756 67.708 35.1353 67.6776 35.7995 C 67.6211 36.5966 67.5929 37.5746 67.5929 38.7221 C 67.5929 39.8719 67.6276 40.8407 67.6841 41.6493 L 67.6841 41.6493 L 67.6776 41.6493 z M 64.5013 35.142 C 64.5817 34.164 64.8337 33.2135 65.2487 32.3363 C 65.6245 31.5667 66.2046 30.9277 66.9171 30.5016 C 68.7812 29.6336 70.9059 29.6336 72.7677 30.5016 C 73.4825 30.9277 74.0626 31.5667 74.4384 32.3363 C 74.8447 33.2158 75.0988 34.1663 75.1857 35.142 C 75.4095 37.5241 75.4095 39.9267 75.1857 42.3088 C 75.0988 43.2799 74.8447 44.2259 74.4384 45.1008 C 74.0669 45.8567 73.4868 46.4751 72.7742 46.8736 C 70.9037 47.7004 68.7964 47.7004 66.9237 46.8736 C 66.2046 46.4682 65.6223 45.8406 65.2552 45.0733 C 64.8424 44.2098 64.586 43.2731 64.5013 42.3088 C 64.2689 39.9267 64.2689 37.5241 64.5013 35.142 z" stroke-linecap="round" />
</g>
		<g transform="matrix(0.71 0 0 0.71 4.86 2.65)" id="body_1"  >
<path style="stroke: none; stroke-width: 1; stroke-dasharray: none; stroke-linecap: butt; stroke-dashoffset: 0; stroke-linejoin: miter; stroke-miterlimit: 4; fill: rgb(24,30,33); fill-rule: nonzero; opacity: 1;"  transform=" translate(-81.81, -38.72)" d="M 86.3396 30.1836 L 86.3396 33.0008 L 80.5412 33.0008 L 80.5412 37.0228 L 85.9855 37.0228 L 85.9855 39.8446 L 80.5412 39.8446 L 80.5412 47.2542 L 77.2737 47.2542 L 77.2737 30.1836 L 86.3396 30.1836 z" stroke-linecap="round" />
</g>
		<g transform="matrix(0.71 0 0 0.71 12.2 2.66)" id="body_1"  >
<path style="stroke: none; stroke-width: 1; stroke-dasharray: none; stroke-linecap: butt; stroke-dashoffset: 0; stroke-linejoin: miter; stroke-miterlimit: 4; fill: rgb(24,30,33); fill-rule: nonzero; opacity: 1;"  transform=" translate(-92.1, -38.73)" d="M 97.2751 33.0013 L 93.7382 33.0013 L 93.7382 47.2684 L 90.4708 47.2684 L 90.4708 33.0013 L 86.9252 33.0013 L 86.9252 30.1841 L 97.2751 30.1841 L 97.2751 33.0013 z" stroke-linecap="round" />
</g>
		<g transform="matrix(0.71 0 0 0.71 22.22 2.65)" id="body_1"  >
<path style="stroke: none; stroke-width: 1; stroke-dasharray: none; stroke-linecap: butt; stroke-dashoffset: 0; stroke-linejoin: miter; stroke-miterlimit: 4; fill: rgb(24,30,33); fill-rule: nonzero; opacity: 1;"  transform=" translate(-106.15, -38.71)" d="M 100.858 30.184 L 102.65 42.7997 L 102.696 42.7997 L 104.627 30.168 L 107.753 30.168 L 109.609 42.7997 L 109.654 42.7997 L 111.447 30.168 L 114.577 30.168 L 111.627 47.2408 L 107.979 47.2408 L 106.161 34.8565 L 106.115 34.8565 L 104.325 47.2546 L 100.677 47.2546 L 97.7271 30.184 L 100.858 30.184 z" stroke-linecap="round" />
</g>
		<g transform="matrix(0.71 0 0 0.71 32.59 2.65)" id="body_1"  >
<path style="stroke: none; stroke-width: 1; stroke-dasharray: none; stroke-linecap: butt; stroke-dashoffset: 0; stroke-linejoin: miter; stroke-miterlimit: 4; fill: rgb(24,30,33); fill-rule: nonzero; opacity: 1;"  transform=" translate(-120.69, -38.72)" d="M 122.271 40.8221 L 120.704 33.1446 L 120.661 33.1446 L 119.095 40.8221 L 122.271 40.8221 z M 122.703 30.1826 L 127.007 47.2555 L 123.605 47.2555 L 122.857 43.6457 L 118.547 43.6457 L 117.8 47.2555 L 114.378 47.2555 L 118.662 30.1826 L 122.703 30.1826 z" stroke-linecap="round" />
</g>
		<g transform="matrix(0.71 0 0 0.71 41.81 2.65)" id="body_1"  >
<path style="stroke: none; stroke-width: 1; stroke-dasharray: none; stroke-linecap: butt; stroke-dashoffset: 0; stroke-linejoin: miter; stroke-miterlimit: 4; fill: rgb(24,30,33); fill-rule: nonzero; opacity: 1;"  transform=" translate(-133.61, -38.71)" d="M 132.75 37.6566 C 133.402 37.7001 134.049 37.4917 134.566 37.0703 C 135.044 36.5435 135.281 35.8197 135.211 35.0936 C 135.211 33.5178 134.455 32.7299 132.943 32.7299 L 132.943 32.7299 L 131.39 32.7299 L 131.39 37.6566 L 132.75 37.6566 z M 134.16 30.1829 C 135.303 30.1027 136.432 30.4829 137.319 31.2479 C 138.135 32.1297 138.548 33.3368 138.453 34.5645 C 138.496 35.5448 138.272 36.5182 137.807 37.3702 C 137.343 38.1169 136.602 38.6254 135.765 38.7697 L 135.765 38.7697 L 135.765 38.8178 C 136.437 38.8751 137.071 39.1682 137.562 39.6538 C 137.999 40.2539 138.244 40.9822 138.266 41.7381 C 138.266 42.0587 138.318 42.4183 138.329 42.7779 C 138.342 43.1398 138.361 43.5727 138.374 44.0354 C 138.409 44.9424 138.455 45.6318 138.509 46.1128 C 138.559 46.5159 138.776 46.8755 139.102 47.0908 L 139.102 47.0908 L 139.102 47.2351 L 135.565 47.2351 C 135.396 46.9923 135.287 46.7106 135.25 46.4128 C 135.2 46.0922 135.168 45.7669 135.153 45.4394 L 135.153 45.4394 L 135.061 42.1664 C 135.07 41.6007 134.903 41.0464 134.586 40.5906 C 134.216 40.1669 133.68 39.9516 133.137 40.0111 L 133.137 40.0111 L 131.39 40.0111 L 131.39 47.2534 L 128.122 47.2534 L 128.122 30.1829 L 134.16 30.1829 z" stroke-linecap="round" />
</g>
		<g transform="matrix(0.71 0 0 0.71 50.2 2.65)" id="body_1"  >
<path style="stroke: none; stroke-width: 1; stroke-dasharray: none; stroke-linecap: butt; stroke-dashoffset: 0; stroke-linejoin: miter; stroke-miterlimit: 4; fill: rgb(24,30,33); fill-rule: nonzero; opacity: 1;"  transform=" translate(-145.37, -38.72)" d="M 149.787 33.0013 L 143.989 33.0013 L 143.989 37.0233 L 149.433 37.0233 L 149.433 39.8428 L 143.989 39.8428 L 143.989 44.4351 L 150 44.4351 L 150 47.2546 L 140.734 47.2546 L 140.734 30.1841 L 149.754 30.1841 L 149.787 33.0013 z" stroke-linecap="round" />
</g>
		<g transform="matrix(0.71 0 0 0.71 -12.07 18.4)" id="body_1"  >
<path style="stroke: none; stroke-width: 1; stroke-dasharray: none; stroke-linecap: butt; stroke-dashoffset: 0; stroke-linejoin: miter; stroke-miterlimit: 4; fill: rgb(24,30,33); fill-rule: nonzero; opacity: 1;"  transform=" translate(-58.08, -60.79)" d="M 56.1693 52.2559 L 56.1693 58.7859 L 59.9908 58.7859 L 59.9908 52.2559 L 63.2582 52.2559 L 63.2582 69.3333 L 59.9908 69.3333 L 59.9908 61.752 L 56.1693 61.752 L 56.1693 69.3333 L 52.9018 69.3333 L 52.9018 52.2559 L 56.1693 52.2559 z" stroke-linecap="round" />
</g>
		<g transform="matrix(0.71 0 0 0.71 -3.08 18.37)" id="body_1"  >
<path style="stroke: none; stroke-width: 1; stroke-dasharray: none; stroke-linecap: butt; stroke-dashoffset: 0; stroke-linejoin: miter; stroke-miterlimit: 4; fill: rgb(24,30,33); fill-rule: nonzero; opacity: 1;"  transform=" translate(-70.69, -60.76)" d="M 68.522 63.7237 C 68.5481 64.3879 68.6545 65.0475 68.8392 65.6843 C 68.9522 66.1194 69.1911 66.5019 69.5214 66.786 C 70.2383 67.2486 71.1377 67.2486 71.8546 66.786 C 72.1827 66.5019 72.4217 66.1194 72.5368 65.6843 C 72.728 65.0498 72.8431 64.3902 72.8779 63.7237 C 72.93 62.9197 72.9561 61.944 72.9561 60.7965 C 72.9561 59.6467 72.9561 58.6755 72.8779 57.8808 C 72.8497 57.2142 72.7432 56.5546 72.5629 55.9179 C 72.4499 55.4804 72.2109 55.091 71.8785 54.8024 C 71.1638 54.3398 70.2622 54.3398 69.5474 54.8024 C 69.215 55.091 68.9761 55.4804 68.8631 55.9179 C 68.6828 56.5546 68.5763 57.2142 68.5481 57.8808 C 68.4959 58.6755 68.4634 59.6467 68.4634 60.7965 C 68.4634 61.944 68.4699 62.9197 68.522 63.7237 M 65.3457 57.2207 C 65.4282 56.2427 65.6803 55.2876 66.093 54.4103 C 66.4667 53.6408 67.0468 53.0017 67.7615 52.5803 C 69.6234 51.7031 71.7503 51.7031 73.6121 52.5803 C 74.3269 53.0017 74.907 53.6408 75.2806 54.4103 C 75.6934 55.2876 75.9454 56.2427 76.0302 57.2207 C 76.2539 59.6004 76.2539 62.0008 76.0302 64.3806 C 75.9454 65.3563 75.6934 66.3045 75.2806 67.1818 C 74.9113 67.9445 74.3291 68.5698 73.6121 68.9752 C 71.7394 69.7974 69.6342 69.7974 67.7615 68.9752 C 67.0446 68.5698 66.4624 67.9445 66.093 67.1818 C 65.6824 66.3045 65.4282 65.3563 65.3457 64.3806 C 65.1219 62.0008 65.1219 59.6004 65.3457 57.2207" stroke-linecap="round" />
</g>
		<g transform="matrix(0.71 0 0 0.71 5.76 18.5)" id="body_1"  >
<path style="stroke: none; stroke-width: 1; stroke-dasharray: none; stroke-linecap: butt; stroke-dashoffset: 0; stroke-linejoin: miter; stroke-miterlimit: 4; fill: rgb(24,30,33); fill-rule: nonzero; opacity: 1;"  transform=" translate(-83.08, -60.94)" d="M 81.1914 64.1638 C 81.1849 64.5623 81.2066 64.9585 81.2566 65.3548 C 81.3 65.68 81.4 65.9961 81.5521 66.2847 C 81.6911 66.5412 81.8931 66.7565 82.1386 66.9008 C 82.4298 67.068 82.7556 67.1482 83.0859 67.1321 C 83.4161 67.1505 83.7441 67.0703 84.0331 66.9008 C 84.2764 66.7565 84.4763 66.5412 84.6131 66.2847 C 84.7652 65.9961 84.8652 65.68 84.9086 65.3548 C 84.9629 64.9608 84.989 64.5623 84.9868 64.1638 L 84.9868 64.1638 L 84.9868 52.2559 L 88.2543 52.2559 L 88.2543 64.1638 C 88.2869 65.0914 88.1413 66.0167 87.822 66.8825 C 87.5765 67.5376 87.1811 68.1193 86.6683 68.5728 C 86.186 68.9851 85.619 69.2714 85.0129 69.4088 C 84.3763 69.5531 83.7289 69.6241 83.0793 69.6195 C 82.4298 69.6218 81.7823 69.5577 81.1458 69.4294 C 80.544 69.3126 79.9748 69.0469 79.4903 68.6553 C 78.9733 68.2178 78.5757 67.6429 78.3367 66.9901 C 78.0195 66.0969 77.8718 65.1464 77.9044 64.1912 L 77.9044 64.1912 L 77.9044 52.2559 L 81.1719 52.2559 L 81.1914 64.1638 z" stroke-linecap="round" />
</g>
		<g transform="matrix(0.71 0 0 0.71 14.32 18.39)" id="body_1"  >
<path style="stroke: none; stroke-width: 1; stroke-dasharray: none; stroke-linecap: butt; stroke-dashoffset: 0; stroke-linejoin: miter; stroke-miterlimit: 4; fill: rgb(24,30,33); fill-rule: nonzero; opacity: 1;"  transform=" translate(-95.08, -60.78)" d="M 92.9641 64.5379 C 92.9641 64.902 92.9924 65.2662 93.0554 65.6258 C 93.1032 65.9236 93.2205 66.2076 93.3965 66.4481 C 93.5659 66.6771 93.7875 66.8603 94.0417 66.9772 C 94.3741 67.1146 94.7304 67.1787 95.091 67.1673 C 95.5864 67.1696 96.0665 66.9863 96.4445 66.6519 C 96.8682 66.2488 97.0898 65.6602 97.042 65.0624 C 97.0485 64.7234 96.9985 64.389 96.8964 64.0706 C 96.7921 63.7797 96.6248 63.5209 96.4054 63.3148 C 96.1382 63.0605 95.8362 62.8567 95.5103 62.7032 C 95.0628 62.4879 94.6044 62.3024 94.1373 62.1466 C 93.4877 61.9222 92.8577 61.6405 92.2559 61.3038 C 91.7584 61.0335 91.3108 60.6739 90.9285 60.2456 C 90.5744 59.8379 90.3093 59.3546 90.1486 58.8324 C 89.9704 58.2323 89.8857 57.607 89.8965 56.9772 C 89.8965 55.2914 90.3419 54.0271 91.237 53.2002 C 92.2733 52.3184 93.5811 51.8764 94.9107 51.9565 C 95.5885 51.9497 96.2642 52.0321 96.9203 52.2062 C 97.4982 52.3596 98.037 52.6368 98.5062 53.0239 C 98.9581 53.4064 99.3166 53.8965 99.549 54.4577 C 99.8141 55.1173 99.9423 55.8296 99.9249 56.5488 L 99.9249 56.5488 L 99.9249 57.0253 L 96.7921 57.0253 C 96.8269 56.3725 96.6878 55.7197 96.3859 55.1494 C 96.0817 54.6799 95.5625 54.421 95.0259 54.4691 C 94.7152 54.4577 94.4067 54.5149 94.1177 54.6409 C 93.8918 54.7348 93.6941 54.886 93.5377 55.0807 C 93.3965 55.2662 93.2944 55.4815 93.24 55.7128 C 93.1901 55.9556 93.164 56.203 93.164 56.4549 C 93.1423 56.9291 93.2531 57.4009 93.479 57.8109 C 93.8331 58.2781 94.3089 58.6217 94.8455 58.8049 L 94.8455 58.8049 L 97.3591 59.9524 C 97.8979 60.1906 98.4063 60.4884 98.8799 60.8503 C 99.2514 61.116 99.5751 61.4435 99.8467 61.8191 C 100.083 62.1764 100.251 62.5795 100.335 63.0033 C 100.431 63.4728 100.477 63.9538 100.472 64.4371 C 100.472 66.2488 99.9749 67.5589 98.9842 68.3697 C 97.7763 69.263 96.3163 69.6959 94.8455 69.5997 C 93.0032 69.5997 91.6845 69.1783 90.8894 68.3354 C 90.0443 67.3436 89.6141 66.0312 89.6967 64.7005 L 89.6967 64.7005 L 89.6967 64.0202 L 92.9641 64.0202 L 92.9641 64.5379 z" stroke-linecap="round" />
</g>
		<g transform="matrix(0.71 0 0 0.71 22.63 18.4)" id="body_1"  >
<path style="stroke: none; stroke-width: 1; stroke-dasharray: none; stroke-linecap: butt; stroke-dashoffset: 0; stroke-linejoin: miter; stroke-miterlimit: 4; fill: rgb(24,30,33); fill-rule: nonzero; opacity: 1;"  transform=" translate(-106.73, -60.8)" d="M 111.156 55.0809 L 105.357 55.0809 L 105.357 59.1029 L 110.802 59.1029 L 110.802 61.9224 L 105.357 61.9224 L 105.357 66.5079 L 111.369 66.5079 L 111.369 69.3343 L 102.09 69.3343 L 102.09 52.2568 L 111.156 52.2568 L 111.156 55.0809 z" stroke-linecap="round" />
</g>
		<g transform="matrix(0.71 0 0 0.71 -37.24 0)" id="body_1"  >
<path style="stroke: none; stroke-width: 1; stroke-dasharray: none; stroke-linecap: butt; stroke-dashoffset: 0; stroke-linejoin: miter; stroke-miterlimit: 4; fill: rgb(24,30,33); fill-rule: nonzero; opacity: 1;"  transform=" translate(-22.8, -35)" d="M 45.5904 70 L 45.371 7.34769 L 0 0 L 0 55.4008 L 15.464 60.2451 L 15.464 34.3197 L 28.3514 37.4095 L 28.3514 55.0618 L 15.0903 60.2726 L 28.3514 64.5121 L 45.5904 70 z" stroke-linecap="round" />
</g>
</g>
</g>
</svg>