<svg width="150" height="70" viewBox="0 0 150 70" fill="none" xmlns="http://www.w3.org/2000/svg">
<path fill-rule="evenodd" clip-rule="evenodd" d="M62.0231 10.3066H58.6715V23.5716H55.587V10.3066H52.2333V7.67871H62.0231V10.3066Z" fill="#181E21"/>
<path fill-rule="evenodd" clip-rule="evenodd" d="M66.2724 7.67871V13.755H69.8027V7.67871H72.8436V23.5716H69.8148V16.5149H66.2724V23.5716H63.2255V7.67871H66.2724Z" fill="#181E21"/>
<path fill-rule="evenodd" clip-rule="evenodd" d="M85.308 10.3087H79.1917V14.0448H84.9551V16.6727H79.21V20.9416H85.5532V23.5716H75.7635V7.67871H85.2805L85.308 10.3087Z" fill="#181E21"/>
<path fill-rule="evenodd" clip-rule="evenodd" d="M55.5313 42.425C55.5291 42.7892 55.5596 43.1534 55.6269 43.513C55.6747 43.8107 55.7898 44.0947 55.9637 44.3398C56.1331 44.5689 56.3547 44.7498 56.6067 44.862C56.9435 45.0018 57.3019 45.0659 57.6626 45.0521C58.1557 45.0544 58.6315 44.8735 59.0117 44.5437C59.4375 44.1428 59.6613 43.5542 59.6157 42.9541C59.6222 42.6174 59.5722 42.283 59.4679 41.9624C59.3615 41.6761 59.1942 41.4195 58.9791 41.2088C58.7119 40.9546 58.4099 40.7507 58.0819 40.5973C57.656 40.382 57.2172 40.1919 56.7675 40.0338C56.1005 39.8185 55.4531 39.5391 54.8361 39.1978C54.3538 38.9161 53.9193 38.5565 53.5456 38.1305C53.1915 37.7274 52.9265 37.2464 52.7679 36.7241C52.5897 36.1241 52.505 35.4988 52.5159 34.8689C52.5159 33.1809 52.959 31.9211 53.8498 31.0943C54.8883 30.2125 56.1983 29.7704 57.5279 29.8506C58.2035 29.8414 58.8792 29.9262 59.5331 30.1002C60.111 30.2491 60.6541 30.524 61.1234 30.9088C61.5753 31.2935 61.9316 31.7837 62.1684 32.3426C62.4291 33.0068 62.5573 33.7168 62.5421 34.436V34.9193H59.3897C59.4288 34.2642 59.2876 33.6115 58.9856 33.0411C58.6771 32.5739 58.1557 32.3151 57.6191 32.3609C57.3106 32.354 57.0043 32.409 56.7153 32.5258C56.4937 32.6266 56.296 32.7755 56.1375 32.9678C55.9897 33.1511 55.8898 33.371 55.8398 33.6046C55.7877 33.8497 55.7616 34.097 55.7616 34.3467C55.7486 34.8116 55.8572 35.2697 56.0788 35.6728C56.4177 36.1424 56.8826 36.4928 57.4127 36.6829L59.9893 37.8327C60.5129 38.0755 61.0126 38.371 61.4797 38.7214C61.8403 39.0031 62.1575 39.3421 62.4182 39.7269C62.6507 40.0865 62.8158 40.4873 62.9092 40.9088C63.0026 41.3829 63.0483 41.8662 63.0439 42.3494C63.0439 44.1612 62.5486 45.4713 61.5557 46.2844C60.35 47.1891 58.89 47.6357 57.4127 47.5533C55.5639 47.5533 54.2495 47.1341 53.45 46.2844C52.5941 45.2835 52.1639 43.9573 52.2573 42.6151V41.9349H55.5183L55.5313 42.425Z" fill="#181E21"/>
<path fill-rule="evenodd" clip-rule="evenodd" d="M67.6776 41.6493C67.7059 42.3135 67.8123 42.9708 67.9948 43.6053C68.0969 44.0336 68.3228 44.4184 68.6379 44.707C68.9833 44.9521 69.3961 45.0735 69.811 45.0528C70.2238 45.0735 70.6344 44.9498 70.9777 44.707C71.3057 44.423 71.5447 44.0382 71.6598 43.6053C71.8402 42.9708 71.9466 42.3135 71.977 41.6493C72.027 40.8407 72.0531 39.8719 72.0531 38.7221C72.0531 37.5746 72.0531 36.5966 71.977 35.7995C71.9444 35.1353 71.838 34.4756 71.6598 33.8389C71.5469 33.4014 71.3079 33.0143 70.9777 32.728C70.6344 32.4853 70.2238 32.3639 69.811 32.3845C69.3961 32.3616 68.9833 32.4853 68.6379 32.728C68.3207 33.0212 68.0947 33.406 67.9948 33.8389C67.8123 34.4756 67.708 35.1353 67.6776 35.7995C67.6211 36.5966 67.5929 37.5746 67.5929 38.7221C67.5929 39.8719 67.6276 40.8407 67.6841 41.6493H67.6776ZM64.5013 35.142C64.5817 34.164 64.8337 33.2135 65.2487 32.3363C65.6245 31.5667 66.2046 30.9277 66.9171 30.5016C68.7812 29.6336 70.9059 29.6336 72.7677 30.5016C73.4825 30.9277 74.0626 31.5667 74.4384 32.3363C74.8447 33.2158 75.0988 34.1663 75.1857 35.142C75.4095 37.5241 75.4095 39.9267 75.1857 42.3088C75.0988 43.2799 74.8447 44.2259 74.4384 45.1008C74.0669 45.8567 73.4868 46.4751 72.7742 46.8736C70.9037 47.7004 68.7964 47.7004 66.9237 46.8736C66.2046 46.4682 65.6223 45.8406 65.2552 45.0733C64.8424 44.2098 64.586 43.2731 64.5013 42.3088C64.2689 39.9267 64.2689 37.5241 64.5013 35.142V35.142Z" fill="#181E21"/>
<path fill-rule="evenodd" clip-rule="evenodd" d="M86.3396 30.1836V33.0008H80.5412V37.0228H85.9855V39.8446H80.5412V47.2542H77.2737V30.1836H86.3396Z" fill="#181E21"/>
<path fill-rule="evenodd" clip-rule="evenodd" d="M97.2751 33.0013H93.7382V47.2684H90.4708V33.0013H86.9252V30.1841H97.2751V33.0013Z" fill="#181E21"/>
<path fill-rule="evenodd" clip-rule="evenodd" d="M100.858 30.184L102.65 42.7997H102.696L104.627 30.168H107.753L109.609 42.7997H109.654L111.447 30.168H114.577L111.627 47.2408H107.979L106.161 34.8565H106.115L104.325 47.2546H100.677L97.7271 30.184H100.858Z" fill="#181E21"/>
<path fill-rule="evenodd" clip-rule="evenodd" d="M122.271 40.8221L120.704 33.1446H120.661L119.095 40.8221H122.271ZM122.703 30.1826L127.007 47.2555H123.605L122.857 43.6457H118.547L117.8 47.2555H114.378L118.662 30.1826H122.703Z" fill="#181E21"/>
<path fill-rule="evenodd" clip-rule="evenodd" d="M132.75 37.6566C133.402 37.7001 134.049 37.4917 134.566 37.0703C135.044 36.5435 135.281 35.8197 135.211 35.0936C135.211 33.5178 134.455 32.7299 132.943 32.7299H131.39V37.6566H132.75ZM134.16 30.1829C135.303 30.1027 136.432 30.4829 137.319 31.2479C138.135 32.1297 138.548 33.3368 138.453 34.5645C138.496 35.5448 138.272 36.5182 137.807 37.3702C137.343 38.1169 136.602 38.6254 135.765 38.7697V38.8178C136.437 38.8751 137.071 39.1682 137.562 39.6538C137.999 40.2539 138.244 40.9822 138.266 41.7381C138.266 42.0587 138.318 42.4183 138.329 42.7779C138.342 43.1398 138.361 43.5727 138.374 44.0354C138.409 44.9424 138.455 45.6318 138.509 46.1128C138.559 46.5159 138.776 46.8755 139.102 47.0908V47.2351H135.565C135.396 46.9923 135.287 46.7106 135.25 46.4128C135.2 46.0922 135.168 45.7669 135.153 45.4394L135.061 42.1664C135.07 41.6007 134.903 41.0464 134.586 40.5906C134.216 40.1669 133.68 39.9516 133.137 40.0111H131.39V47.2534H128.122V30.1829H134.16Z" fill="#181E21"/>
<path fill-rule="evenodd" clip-rule="evenodd" d="M149.787 33.0013H143.989V37.0233H149.433V39.8428H143.989V44.4351H150V47.2546H140.734V30.1841H149.754L149.787 33.0013Z" fill="#181E21"/>
<path fill-rule="evenodd" clip-rule="evenodd" d="M56.1693 52.2559V58.7859H59.9908V52.2559H63.2582V69.3333H59.9908V61.752H56.1693V69.3333H52.9018V52.2559H56.1693Z" fill="#181E21"/>
<path fill-rule="evenodd" clip-rule="evenodd" d="M68.522 63.7237C68.5481 64.3879 68.6545 65.0475 68.8392 65.6843C68.9522 66.1194 69.1911 66.5019 69.5214 66.786C70.2383 67.2486 71.1377 67.2486 71.8546 66.786C72.1827 66.5019 72.4217 66.1194 72.5368 65.6843C72.728 65.0498 72.8431 64.3902 72.8779 63.7237C72.93 62.9197 72.9561 61.944 72.9561 60.7965C72.9561 59.6467 72.9561 58.6755 72.8779 57.8808C72.8497 57.2142 72.7432 56.5546 72.5629 55.9179C72.4499 55.4804 72.2109 55.091 71.8785 54.8024C71.1638 54.3398 70.2622 54.3398 69.5474 54.8024C69.215 55.091 68.9761 55.4804 68.8631 55.9179C68.6828 56.5546 68.5763 57.2142 68.5481 57.8808C68.4959 58.6755 68.4634 59.6467 68.4634 60.7965C68.4634 61.944 68.4699 62.9197 68.522 63.7237M65.3457 57.2207C65.4282 56.2427 65.6803 55.2876 66.093 54.4103C66.4667 53.6408 67.0468 53.0017 67.7615 52.5803C69.6234 51.7031 71.7503 51.7031 73.6121 52.5803C74.3269 53.0017 74.907 53.6408 75.2806 54.4103C75.6934 55.2876 75.9454 56.2427 76.0302 57.2207C76.2539 59.6004 76.2539 62.0008 76.0302 64.3806C75.9454 65.3563 75.6934 66.3045 75.2806 67.1818C74.9113 67.9445 74.3291 68.5698 73.6121 68.9752C71.7394 69.7974 69.6342 69.7974 67.7615 68.9752C67.0446 68.5698 66.4624 67.9445 66.093 67.1818C65.6824 66.3045 65.4282 65.3563 65.3457 64.3806C65.1219 62.0008 65.1219 59.6004 65.3457 57.2207" fill="#181E21"/>
<path fill-rule="evenodd" clip-rule="evenodd" d="M81.1914 64.1638C81.1849 64.5623 81.2066 64.9585 81.2566 65.3548C81.3 65.68 81.4 65.9961 81.5521 66.2847C81.6911 66.5412 81.8931 66.7565 82.1386 66.9008C82.4298 67.068 82.7556 67.1482 83.0859 67.1321C83.4161 67.1505 83.7441 67.0703 84.0331 66.9008C84.2764 66.7565 84.4763 66.5412 84.6131 66.2847C84.7652 65.9961 84.8652 65.68 84.9086 65.3548C84.9629 64.9608 84.989 64.5623 84.9868 64.1638V52.2559H88.2543V64.1638C88.2869 65.0914 88.1413 66.0167 87.822 66.8825C87.5765 67.5376 87.1811 68.1193 86.6683 68.5728C86.186 68.9851 85.619 69.2714 85.0129 69.4088C84.3763 69.5531 83.7289 69.6241 83.0793 69.6195C82.4298 69.6218 81.7823 69.5577 81.1458 69.4294C80.544 69.3126 79.9748 69.0469 79.4903 68.6553C78.9733 68.2178 78.5757 67.6429 78.3367 66.9901C78.0195 66.0969 77.8718 65.1464 77.9044 64.1912V52.2559H81.1719L81.1914 64.1638Z" fill="#181E21"/>
<path fill-rule="evenodd" clip-rule="evenodd" d="M92.9641 64.5379C92.9641 64.902 92.9924 65.2662 93.0554 65.6258C93.1032 65.9236 93.2205 66.2076 93.3965 66.4481C93.5659 66.6771 93.7875 66.8603 94.0417 66.9772C94.3741 67.1146 94.7304 67.1787 95.091 67.1673C95.5864 67.1696 96.0665 66.9863 96.4445 66.6519C96.8682 66.2488 97.0898 65.6602 97.042 65.0624C97.0485 64.7234 96.9985 64.389 96.8964 64.0706C96.7921 63.7797 96.6248 63.5209 96.4054 63.3148C96.1382 63.0605 95.8362 62.8567 95.5103 62.7032C95.0628 62.4879 94.6044 62.3024 94.1373 62.1466C93.4877 61.9222 92.8577 61.6405 92.2559 61.3038C91.7584 61.0335 91.3108 60.6739 90.9285 60.2456C90.5744 59.8379 90.3093 59.3546 90.1486 58.8324C89.9704 58.2323 89.8857 57.607 89.8965 56.9772C89.8965 55.2914 90.3419 54.0271 91.237 53.2002C92.2733 52.3184 93.5811 51.8764 94.9107 51.9565C95.5885 51.9497 96.2642 52.0321 96.9203 52.2062C97.4982 52.3596 98.037 52.6368 98.5062 53.0239C98.9581 53.4064 99.3166 53.8965 99.549 54.4577C99.8141 55.1173 99.9423 55.8296 99.9249 56.5488V57.0253H96.7921C96.8269 56.3725 96.6878 55.7197 96.3859 55.1494C96.0817 54.6799 95.5625 54.421 95.0259 54.4691C94.7152 54.4577 94.4067 54.5149 94.1177 54.6409C93.8918 54.7348 93.6941 54.886 93.5377 55.0807C93.3965 55.2662 93.2944 55.4815 93.24 55.7128C93.1901 55.9556 93.164 56.203 93.164 56.4549C93.1423 56.9291 93.2531 57.4009 93.479 57.8109C93.8331 58.2781 94.3089 58.6217 94.8455 58.8049L97.3591 59.9524C97.8979 60.1906 98.4063 60.4884 98.8799 60.8503C99.2514 61.116 99.5751 61.4435 99.8467 61.8191C100.083 62.1764 100.251 62.5795 100.335 63.0033C100.431 63.4728 100.477 63.9538 100.472 64.4371C100.472 66.2488 99.9749 67.5589 98.9842 68.3697C97.7763 69.263 96.3163 69.6959 94.8455 69.5997C93.0032 69.5997 91.6845 69.1783 90.8894 68.3354C90.0443 67.3436 89.6141 66.0312 89.6967 64.7005V64.0202H92.9641V64.5379Z" fill="#181E21"/>
<path fill-rule="evenodd" clip-rule="evenodd" d="M111.156 55.0809H105.357V59.1029H110.802V61.9224H105.357V66.5079H111.369V69.3343H102.09V52.2568H111.156V55.0809Z" fill="#181E21"/>
<path fill-rule="evenodd" clip-rule="evenodd" d="M45.5904 70L45.371 7.34769L0 0V55.4008L15.464 60.2451V34.3197L28.3514 37.4095V55.0618L15.0903 60.2726L28.3514 64.5121L45.5904 70Z" fill="#181E21"/>
</svg>
