<?xml version="1.0" encoding="UTF-8"?> <svg xmlns="http://www.w3.org/2000/svg" width="554.39" height="88.48"><defs><style>.cls-10{fill:#127cb5;}.cls-9{fill:#fc0;stroke-width:1.61px;}.cls-11,.cls-9{stroke:#ffcd05;stroke-miterlimit:10;}.cls-11,.cls-12{fill:none;}.cls-11{stroke-linecap:round;stroke-width:2.41px;}</style></defs><g><title>background</title><rect fill="none" id="canvas_background" height="402" width="582" y="-1" x="-1"></rect></g><g><title>Layer 1</title><path id="svg_52" d="m32.75,45a12.26,12.26 0 0 1 -0.17,2.29a9.18,9.18 0 0 1 -0.89,2.29s-0.22,0.42 -0.48,0.83a16.48,16.48 0 0 1 -5.38,5.15c-0.39,0.21 -0.76,0.38 -1.51,0.71a10,10 0 0 1 -2.57,0.81a7.07,7.07 0 0 1 0.2,-2.51a10.52,10.52 0 0 1 0.7,-2a9.32,9.32 0 0 1 0.94,-1.59a12,12 0 0 1 1.59,-1.77a17,17 0 0 1 2,-1.61a16.74,16.74 0 0 1 3.07,-1.75a25.86,25.86 0 0 1 2.5,-0.85z" class="cls-9"></path><path fill="none" id="svg_53" d="m33.76,21.85c1.72,-1.1 4.55,-2.38 5.26,-1.63s-0.51,2.64 -0.63,2.86a19.54,19.54 0 0 1 -1.58,2c0.06,0.06 0.76,-0.62 1.77,-1.16s3,-1.32 3.6,-0.68s-0.21,2.63 -1.43,3.8c-0.66,0.63 -1.42,1 -1.36,1.09s1,-0.37 2.31,-0.61c0.72,-0.12 2.28,-0.4 2.74,0.21c0.68,0.88 -1.28,3.27 -1.53,3.56a12.52,12.52 0 0 1 -5.68,3.78c-1.77,0.57 -6.86,2.24 -8.94,-0.11c-1.75,-2 -0.31,-5.57 0.31,-7.13a12.85,12.85 0 0 1 5.16,-5.98z" class="cls-10"></path><path id="svg_54" d="m18.63,59.24s-1.26,-10.83 8.59,-22.24" class="cls-11"></path><g id="svg_57"><path fill="#3562dd" id="svg_2" d="m68.009999,17.03l0,1.2c-2.6,0.18 -5.74,1.84 -5.74,6.16c0,4.2 2.82,5.8 5.7,6l0,1.24l2.32,0l0,-1.24c2.94,-0.24 5.76,-1.88 5.76,-6.08c0,-4.22 -2.86,-5.9 -5.72,-6.08l0,-1.2l-2.32,0zm-0.02,11.62c-1.56,-0.16 -3.24,-1.42 -3.24,-4.32c0,-3.14 1.8,-4.26 3.24,-4.4l0,8.72zm2.32,-8.72c1.58,0.14 3.24,1.26 3.24,4.38c0,3.06 -1.72,4.2 -3.24,4.34l0,-8.72z"></path><path fill="#3562dd" id="svg_3" d="m76.969999,21.33l3.56,8.94c0.12,0.24 0.14,0.38 0.14,0.48c0,0.12 -0.06,0.26 -0.16,0.44c-0.34,0.66 -0.88,1.24 -1.34,1.54c-0.5,0.36 -1.02,0.58 -1.44,0.68l0.56,2.08c0.62,-0.08 1.62,-0.4 2.58,-1.26c1.16,-1 2.06,-2.62 3.4,-6.26l2.44,-6.64l-2.64,0l-1.52,5.2c-0.18,0.64 -0.36,1.36 -0.52,1.92l-0.06,0c-0.14,-0.56 -0.34,-1.3 -0.54,-1.9l-1.76,-5.22l-2.7,0z"></path><path fill="#3562dd" id="svg_4" d="m88.109999,21.33l0,9.74l2.46,0l0,-4.1l3.76,0l0,4.1l2.46,0l0,-9.74l-2.46,0l0,3.72l-3.76,0l0,-3.72l-2.46,0z"></path><path fill="#3562dd" id="svg_5" d="m100.618999,21.33l0,2.46c0,1.2 -0.16,2.38 -0.5,3.5c-0.22,0.7 -0.56,1.38 -0.96,2l-0.88,0.06l0.08,4.84l1.88,0l0.12,-3.12l6.4,0l0.1,3.12l1.88,0l0.1,-4.86l-1.04,-0.04l0,-7.96l-7.18,0zm2.14,1.84l2.66,0l0,6.08l-3.8,0c0.3,-0.52 0.56,-1.12 0.72,-1.74c0.28,-0.94 0.42,-1.98 0.42,-3.02l0,-1.32z"></path><path fill="#3562dd" id="svg_6" d="m118.368999,31.07c-0.1,-0.6 -0.14,-1.46 -0.14,-2.34l0,-3.52c0,-2.12 -0.9,-4.1 -4.02,-4.1c-1.54,0 -2.8,0.42 -3.52,0.86l0.48,1.6c0.66,-0.42 1.66,-0.72 2.62,-0.72c1.72,0 1.98,1.06 1.98,1.7l0,0.16c-3.6,-0.02 -5.78,1.22 -5.78,3.68c0,1.48 1.1,2.9 3.06,2.9c1.26,0 2.28,-0.54 2.88,-1.3l0.06,0l0.16,1.08l2.22,0zm-2.54,-3.42c0,0.16 -0.02,0.36 -0.08,0.54c-0.22,0.7 -0.94,1.34 -1.92,1.34c-0.78,0 -1.4,-0.44 -1.4,-1.4c0,-1.48 1.66,-1.86 3.4,-1.82l0,1.34z"></path><path fill="#3562dd" id="svg_7" d="m120.804999,21.33l0,9.74l7.54,0l0.1,3.12l1.88,0l0.12,-4.86l-1.06,-0.04l0,-7.96l-2.46,0l0,7.84l-3.66,0l0,-7.84l-2.46,0z"></path><path fill="#3562dd" id="svg_8" d="m134.749999,31.07l0,-9.74l-2.48,0l0,9.74l2.48,0zm-1.24,-13.8c-0.82,0 -1.38,0.58 -1.38,1.34c0,0.74 0.54,1.32 1.36,1.32c0.86,0 1.4,-0.58 1.4,-1.32c-0.02,-0.76 -0.54,-1.34 -1.38,-1.34z"></path><path fill="#3562dd" id="svg_9" d="m145.389999,21.41c-0.86,-0.12 -2.1,-0.22 -3.46,-0.22c-1.3,0 -2.6,0.18 -3.44,0.62c-0.86,0.44 -1.5,1.14 -1.5,2.26c0,1.52 1.38,2.28 2.54,2.4l0,0.06c-0.48,0.1 -0.86,0.36 -1.16,0.66c-0.74,0.68 -1.08,1.94 -1.46,2.8c-0.18,0.4 -0.36,0.78 -0.6,1.08l2.64,0c0.16,-0.28 0.26,-0.52 0.38,-0.8c0.34,-0.84 0.58,-1.88 1.2,-2.42c0.34,-0.38 0.82,-0.64 1.5,-0.64l0.92,0l0,3.86l2.44,0l0,-9.66zm-2.44,4.24c-0.32,0.02 -0.64,0.02 -1.22,0.02c-0.96,0 -2.18,-0.44 -2.18,-1.46c0,-1.08 1.1,-1.46 2.18,-1.46c0.54,0 0.88,0.04 1.22,0.1l0,2.8z"></path><path fill="#3562dd" id="svg_10" d="m61.621999,37.694l5.4,11.016c0.168,0.312 0.216,0.528 0.072,0.864c-0.408,0.912 -1.272,2.064 -2.64,2.064c-0.456,0 -0.768,-0.024 -1.008,-0.096l-0.24,2.376c0.384,0.144 0.816,0.216 1.512,0.216c1.704,0 2.976,-0.744 4.032,-2.064c1.152,-1.512 2.184,-3.96 3.12,-6.312l3.192,-8.064l-3.12,0l-2.112,6.168c-0.384,1.272 -0.672,2.304 -0.912,3.048l-0.072,0c-0.384,-0.96 -0.72,-1.92 -1.152,-2.976l-2.736,-6.24l-3.336,0z"></path><path fill="#3562dd" id="svg_11" d="m75.853999,42.182l0,11.688l2.952,0l0,-4.848l0.384,0c1.536,0 2.424,0.768 3.048,2.352c0.432,1.128 0.768,1.992 1.08,2.496l3.072,0c-0.528,-1.008 -0.96,-2.304 -1.32,-3.168c-0.792,-1.872 -1.776,-3.144 -3.384,-3.384l4.656,-5.136l-3.504,0l-3.6,4.848l-0.432,0l0,-4.848l-2.952,0z"></path><path fill="#3562dd" id="svg_12" d="m88.041999,58.622l2.952,0l0,-6.048l0.048,0c0.6,0.936 1.824,1.56 3.288,1.56c2.664,0 5.328,-2.04 5.328,-6.264c0,-3.648 -2.232,-5.952 -4.92,-5.952c-1.776,0 -3.144,0.744 -4.008,2.064l-0.048,0l-0.144,-1.8l-2.592,0c0.048,1.104 0.096,2.352 0.096,3.888l0,12.552zm2.952,-11.448c0,-0.24 0.048,-0.504 0.12,-0.744c0.288,-1.296 1.416,-2.184 2.64,-2.184c1.896,0 2.904,1.68 2.904,3.744c0,2.304 -1.104,3.864 -2.976,3.864c-1.248,0 -2.304,-0.864 -2.592,-2.064c-0.072,-0.264 -0.096,-0.528 -0.096,-0.816l0,-1.8z"></path><path fill="#3562dd" id="svg_13" d="m111.343999,53.87c-0.12,-0.72 -0.168,-1.752 -0.168,-2.808l0,-4.224c0,-2.544 -1.08,-4.92 -4.824,-4.92c-1.848,0 -3.36,0.504 -4.224,1.032l0.576,1.92c0.792,-0.504 1.992,-0.864 3.144,-0.864c2.064,0 2.376,1.272 2.376,2.04l0,0.192c-4.32,-0.024 -6.936,1.464 -6.936,4.416c0,1.776 1.32,3.48 3.672,3.48c1.512,0 2.736,-0.648 3.456,-1.56l0.072,0l0.192,1.296l2.664,0zm-3.048,-4.104c0,0.192 -0.024,0.432 -0.096,0.648c-0.264,0.84 -1.128,1.608 -2.304,1.608c-0.936,0 -1.68,-0.528 -1.68,-1.68c0,-1.776 1.992,-2.232 4.08,-2.184l0,1.608z"></path><path fill="#3562dd" id="svg_14" d="m117.267999,53.87l0,-11.688l-2.976,0l0,11.688l2.976,0zm-3.864,-13.512c0.84,0 1.44,-0.672 1.44,-1.464c0,-0.864 -0.624,-1.488 -1.416,-1.488c-0.864,0 -1.512,0.648 -1.512,1.488c0,0.792 0.624,1.464 1.488,1.464zm4.776,0c0.84,0 1.44,-0.672 1.44,-1.464c0,-0.864 -0.6,-1.488 -1.44,-1.488s-1.464,0.648 -1.464,1.488c0,0.792 0.6,1.464 1.464,1.464z"></path><path fill="#3562dd" id="svg_15" d="m120.407999,42.182l0,11.688l2.952,0l0,-4.92l4.512,0l0,4.92l2.952,0l0,-11.688l-2.952,0l0,4.464l-4.512,0l0,-4.464l-2.952,0z"></path><path fill="#3562dd" id="svg_16" d="m133.954999,42.182l0,11.688l9.048,0l0.12,3.744l2.256,0l0.144,-5.832l-1.272,-0.048l0,-9.552l-2.952,0l0,9.408l-4.392,0l0,-9.408l-2.952,0z"></path><path fill="#3562dd" id="svg_17" d="m150.688999,53.87l0,-11.688l-2.976,0l0,11.688l2.976,0zm-1.488,-16.56c-0.984,0 -1.656,0.696 -1.656,1.608c0,0.888 0.648,1.584 1.632,1.584c1.032,0 1.68,-0.696 1.68,-1.584c-0.024,-0.912 -0.648,-1.608 -1.656,-1.608z"></path><path fill="#3562dd" id="svg_19" d="m175.909999,37.694l0,16.176l2.952,0l0,-7.128l6.84,0l0,7.128l2.952,0l0,-16.176l-2.952,0l0,6.48l-6.84,0l0,-6.48l-2.952,0z"></path><path fill="#3562dd" id="svg_20" d="m194.889999,53.87l0,-11.688l-2.976,0l0,11.688l2.976,0zm-1.488,-16.56c-0.984,0 -1.656,0.696 -1.656,1.608c0,0.888 0.648,1.584 1.632,1.584c1.032,0 1.68,-0.696 1.68,-1.584c-0.024,-0.912 -0.648,-1.608 -1.656,-1.608z"></path><path fill="#3562dd" id="svg_21" d="m199.449999,42.182l0,2.952c0,1.44 -0.192,2.856 -0.6,4.2c-0.264,0.84 -0.672,1.656 -1.152,2.4l-1.056,0.072l0.096,5.808l2.256,0l0.144,-3.744l7.68,0l0.12,3.744l2.256,0l0.12,-5.832l-1.248,-0.048l0,-9.552l-8.616,0zm2.568,2.208l3.192,0l0,7.296l-4.56,0c0.36,-0.624 0.672,-1.344 0.864,-2.088c0.336,-1.128 0.504,-2.376 0.504,-3.624l0,-1.584z"></path><path fill="#3562dd" id="svg_22" d="m221.339999,48.854c0.048,-0.264 0.096,-0.696 0.096,-1.248c0,-2.568 -1.248,-5.688 -5.04,-5.688c-3.744,0 -5.712,3.048 -5.712,6.288c0,3.576 2.232,5.904 6.024,5.904c1.68,0 3.072,-0.312 4.08,-0.72l-0.432,-2.04c-0.888,0.336 -1.872,0.528 -3.24,0.528c-1.872,0 -3.528,-0.912 -3.6,-3.024l7.824,0zm-7.824,-2.064c0.12,-1.2 0.888,-2.856 2.712,-2.856c1.968,0 2.448,1.776 2.424,2.856l-5.136,0z"></path><path fill="#3562dd" id="svg_23" d="m223.799999,58.622l2.952,0l0,-6.048l0.048,0c0.6,0.936 1.824,1.56 3.288,1.56c2.664,0 5.328,-2.04 5.328,-6.264c0,-3.648 -2.232,-5.952 -4.92,-5.952c-1.776,0 -3.144,0.744 -4.008,2.064l-0.048,0l-0.144,-1.8l-2.592,0c0.048,1.104 0.096,2.352 0.096,3.888l0,12.552zm2.952,-11.448c0,-0.24 0.048,-0.504 0.12,-0.744c0.288,-1.296 1.416,-2.184 2.64,-2.184c1.896,0 2.904,1.68 2.904,3.744c0,2.304 -1.104,3.864 -2.976,3.864c-1.248,0 -2.304,-0.864 -2.592,-2.064c-0.072,-0.264 -0.096,-0.528 -0.096,-0.816l0,-1.8z"></path><path fill="#3562dd" id="svg_24" d="m238.509999,42.182l0,4.728c0,2.256 -0.096,3.6 -0.96,4.32c-0.288,0.288 -0.744,0.48 -1.248,0.576l0.312,2.304c1.392,0 2.256,-0.312 2.928,-0.96c1.392,-1.032 1.728,-3.096 1.728,-6.144l0,-2.544l3.168,0l0,9.408l2.976,0l0,-11.688l-8.904,0z"></path><path fill="#3562dd" id="svg_25" d="m259.759999,53.87c-0.12,-0.72 -0.168,-1.752 -0.168,-2.808l0,-4.224c0,-2.544 -1.08,-4.92 -4.824,-4.92c-1.848,0 -3.36,0.504 -4.224,1.032l0.576,1.92c0.792,-0.504 1.992,-0.864 3.144,-0.864c2.064,0 2.376,1.272 2.376,2.04l0,0.192c-4.32,-0.024 -6.936,1.464 -6.936,4.416c0,1.776 1.32,3.48 3.672,3.48c1.512,0 2.736,-0.648 3.456,-1.56l0.072,0l0.192,1.296l2.664,0zm-3.048,-4.104c0,0.192 -0.024,0.432 -0.096,0.648c-0.264,0.84 -1.128,1.608 -2.304,1.608c-0.936,0 -1.68,-0.528 -1.68,-1.68c0,-1.776 1.992,-2.232 4.08,-2.184l0,1.608z"></path><path fill="#3562dd" id="svg_26" d="m262.679999,42.182l0,11.688l2.952,0l0,-4.92l4.512,0l0,4.92l2.952,0l0,-11.688l-2.952,0l0,4.464l-4.512,0l0,-4.464l-2.952,0z"></path><path fill="#3562dd" id="svg_27" d="m277.689999,42.182l0,2.952c0,1.44 -0.192,2.856 -0.6,4.2c-0.264,0.84 -0.672,1.656 -1.152,2.4l-1.056,0.072l0.096,5.808l2.256,0l0.144,-3.744l7.68,0l0.12,3.744l2.256,0l0.12,-5.832l-1.248,-0.048l0,-9.552l-8.616,0zm2.568,2.208l3.192,0l0,7.296l-4.56,0c0.36,-0.624 0.672,-1.344 0.864,-2.088c0.336,-1.128 0.504,-2.376 0.504,-3.624l0,-1.584z"></path><path fill="#3562dd" id="svg_28" d="m298.989999,53.87c-0.12,-0.72 -0.168,-1.752 -0.168,-2.808l0,-4.224c0,-2.544 -1.08,-4.92 -4.824,-4.92c-1.848,0 -3.36,0.504 -4.224,1.032l0.576,1.92c0.792,-0.504 1.992,-0.864 3.144,-0.864c2.064,0 2.376,1.272 2.376,2.04l0,0.192c-4.32,-0.024 -6.936,1.464 -6.936,4.416c0,1.776 1.32,3.48 3.672,3.48c1.512,0 2.736,-0.648 3.456,-1.56l0.072,0l0.192,1.296l2.664,0zm-3.048,-4.104c0,0.192 -0.024,0.432 -0.096,0.648c-0.264,0.84 -1.128,1.608 -2.304,1.608c-0.936,0 -1.68,-0.528 -1.68,-1.68c0,-1.776 1.992,-2.232 4.08,-2.184l0,1.608z"></path><path fill="#3562dd" id="svg_29" d="m300.619999,42.182l3.912,5.736l-4.056,5.952l3.264,0l1.344,-2.328c0.384,-0.648 0.72,-1.224 1.056,-1.896l0.048,0c0.336,0.648 0.672,1.272 1.056,1.896l1.44,2.328l3.336,0l-3.984,-6.072l3.912,-5.616l-3.216,0l-1.296,2.16c-0.336,0.6 -0.672,1.2 -1.008,1.848l-0.072,0c-0.336,-0.6 -0.672,-1.176 -1.056,-1.8l-1.392,-2.208l-3.288,0z"></path><path fill="#3562dd" id="svg_30" d="m65.313099,67.586l0.552,0c0.744,-0.012 1.656,0.348 1.656,1.2c0,0.948 -0.816,1.428 -1.716,1.428c-0.708,0 -1.416,-0.288 -1.752,-0.492l-0.444,1.068c0.564,0.372 1.404,0.612 2.208,0.612c1.632,0 3.144,-0.852 3.144,-2.556c0,-0.972 -0.624,-1.644 -1.464,-1.824l0,-0.024c0.96,-0.228 1.824,-0.96 1.824,-2.064c0,-1.32 -1.08,-1.884 -2.232,-1.884c-0.924,0 -1.692,0.288 -2.196,0.612l0.288,0.996c0.444,-0.24 1.008,-0.456 1.608,-0.456s1.068,0.336 1.068,0.96c0.024,0.96 -0.96,1.356 -1.872,1.356l-0.468,0l-0.204,1.068z"></path><path fill="#3562dd" id="svg_31" d="m70.862799,65.426l-1.104,5.844l1.392,0l0.48,-2.508l2.16,0l-0.48,2.508l1.404,0l1.104,-5.844l-1.392,0l-0.432,2.244l-2.16,0l0.42,-2.244l-1.392,0z"></path><path fill="#3562dd" id="svg_32" d="m81.433999,71.27c-0.024,-0.696 0.072,-1.788 0.24,-2.664l0.6,-3.048c-0.444,-0.144 -1.128,-0.264 -1.764,-0.264c-2.724,0 -4.116,2.124 -4.116,4.116c0,1.176 0.684,1.992 1.728,1.992c0.744,0 1.512,-0.372 2.088,-1.452l0.036,0c-0.048,0.504 -0.096,0.972 -0.108,1.32l1.296,0zm-1.032,-3.3c-0.276,1.488 -1.068,2.304 -1.716,2.304c-0.612,0 -0.84,-0.504 -0.84,-1.116c0,-1.332 0.996,-2.784 2.292,-2.784c0.252,0 0.432,0.024 0.576,0.06l-0.312,1.536z"></path><path fill="#3562dd" id="svg_33" d="m87.890999,65.618c-0.264,-0.156 -0.816,-0.324 -1.452,-0.324c-1.02,0 -1.944,0.372 -2.58,1.032c-0.6,0.624 -0.948,1.5 -0.948,2.496c0,1.572 1.032,2.58 2.532,2.58c0.66,0 1.272,-0.12 1.692,-0.336l-0.108,-1.008c-0.312,0.144 -0.744,0.24 -1.176,0.24c-0.912,0 -1.44,-0.54 -1.512,-1.308c0,-0.072 0,-0.132 0.012,-0.204l2.46,0l0.168,-0.912l-2.484,0c0.24,-0.876 0.96,-1.5 1.944,-1.5c0.492,0 0.876,0.132 1.092,0.24l0.36,-0.996z"></path><path fill="#3562dd" id="svg_34" d="m89.385999,65.426l-1.56,5.844l1.248,0l0.636,-2.508c0.144,-0.564 0.324,-1.392 0.456,-2.028l0.048,0c0.024,0.516 0.12,1.284 0.192,1.896l0.324,2.568l1.068,0l1.428,-2.64c0.36,-0.684 0.744,-1.416 0.912,-1.812l0.048,0c-0.096,0.6 -0.228,1.428 -0.312,1.98l-0.372,2.544l1.296,0l0.768,-5.844l-1.776,0l-1.26,2.316c-0.348,0.636 -0.72,1.368 -0.888,1.74l-0.024,0c-0.036,-0.492 -0.108,-1.068 -0.156,-1.476l-0.336,-2.58l-1.74,0z"></path><path fill="#3562dd" id="svg_35" d="m99.782999,65.294c-1.992,0 -3.372,1.716 -3.372,3.696c0,1.392 0.912,2.412 2.388,2.412c1.992,0 3.384,-1.704 3.384,-3.684c0,-1.296 -0.828,-2.424 -2.4,-2.424zm-0.168,1.08c0.852,0 1.116,0.744 1.116,1.344c0,1.164 -0.696,2.604 -1.74,2.604c-0.708,0 -1.14,-0.564 -1.14,-1.368c0,-1.092 0.648,-2.58 1.764,-2.58z"></path><path fill="#3562dd" id="svg_36" d="m102.961999,72.626c0.576,-0.768 1.308,-2.064 1.812,-3.192l-1.572,0.12c-0.288,0.996 -0.816,2.256 -1.272,3.168l1.032,-0.096z"></path><path fill="#3562dd" id="svg_37" d="m117.025999,63.422c-0.276,-0.144 -0.876,-0.372 -1.836,-0.372c-1.296,0 -2.388,0.432 -3.24,1.176c-0.996,0.876 -1.572,2.184 -1.572,3.684c0,2.016 1.164,3.492 3.396,3.492c0.888,0 1.716,-0.192 2.172,-0.42l-0.144,-1.104c-0.42,0.18 -1.008,0.348 -1.68,0.348c-1.524,0 -2.232,-1.056 -2.244,-2.136c0,-0.108 0.012,-0.24 0.024,-0.324l3.504,0l0.18,-1.128l-3.576,0c0.336,-1.428 1.524,-2.388 3.048,-2.4c0.672,-0.012 1.26,0.156 1.548,0.312l0.42,-1.128z"></path><path fill="#3562dd" id="svg_38" d="m118.009999,63.794c0.408,0.084 0.756,0.096 1.08,0.132c0.756,0.06 1.296,0.192 1.692,0.588c0.396,0.372 0.564,1.044 0.564,1.548c0,0.144 -0.012,0.3 -0.012,0.444l-0.036,0c-0.24,-0.648 -0.768,-1.08 -1.596,-1.08c-1.86,0 -3,1.908 -3,3.6c0,1.464 0.828,2.376 2.256,2.376c2.604,0 3.528,-3.012 3.528,-5.136c0,-1.056 -0.252,-2.076 -0.912,-2.664c-0.492,-0.492 -1.152,-0.72 -2.064,-0.816c-0.444,-0.048 -1.056,-0.024 -1.524,-0.156l0.024,1.164zm1.152,6.564c-0.72,0 -1.008,-0.636 -1.02,-1.32c0,-1.032 0.528,-2.544 1.644,-2.544c0.744,0 1.044,0.696 1.044,1.368c-0.012,0.888 -0.624,2.496 -1.668,2.496z"></path><path fill="#3562dd" id="svg_39" d="m124.025999,65.426l-1.104,5.844l1.392,0l0.48,-2.508l2.16,0l-0.48,2.508l1.404,0l1.104,-5.844l-1.392,0l-0.432,2.244l-2.16,0l0.42,-2.244l-1.392,0z"></path><path fill="#3562dd" id="svg_40" d="m134.596999,71.27c-0.024,-0.696 0.072,-1.788 0.24,-2.664l0.6,-3.048c-0.444,-0.144 -1.128,-0.264 -1.764,-0.264c-2.724,0 -4.116,2.124 -4.116,4.116c0,1.176 0.684,1.992 1.728,1.992c0.744,0 1.512,-0.372 2.088,-1.452l0.036,0c-0.048,0.504 -0.096,0.972 -0.108,1.32l1.296,0zm-1.032,-3.3c-0.276,1.488 -1.068,2.304 -1.716,2.304c-0.612,0 -0.84,-0.504 -0.84,-1.116c0,-1.332 0.996,-2.784 2.292,-2.784c0.252,0 0.432,0.024 0.576,0.06l-0.312,1.536z"></path><path fill="#3562dd" id="svg_41" d="m141.052999,65.618c-0.264,-0.156 -0.816,-0.324 -1.452,-0.324c-1.02,0 -1.944,0.372 -2.58,1.032c-0.6,0.624 -0.948,1.5 -0.948,2.496c0,1.572 1.032,2.58 2.532,2.58c0.66,0 1.272,-0.12 1.692,-0.336l-0.108,-1.008c-0.312,0.144 -0.744,0.24 -1.176,0.24c-0.912,0 -1.44,-0.54 -1.512,-1.308c0,-0.072 0,-0.132 0.012,-0.204l2.46,0l0.168,-0.912l-2.484,0c0.24,-0.876 0.96,-1.5 1.944,-1.5c0.492,0 0.876,0.132 1.092,0.24l0.36,-0.996z"></path><path fill="#3562dd" id="svg_42" d="m142.547999,65.426l-1.56,5.844l1.248,0l0.636,-2.508c0.144,-0.564 0.324,-1.392 0.456,-2.028l0.048,0c0.024,0.516 0.12,1.284 0.192,1.896l0.324,2.568l1.068,0l1.428,-2.64c0.36,-0.684 0.744,-1.416 0.912,-1.812l0.048,0c-0.096,0.6 -0.228,1.428 -0.312,1.98l-0.372,2.544l1.296,0l0.768,-5.844l-1.776,0l-1.26,2.316c-0.348,0.636 -0.72,1.368 -0.888,1.74l-0.024,0c-0.036,-0.492 -0.108,-1.068 -0.156,-1.476l-0.336,-2.58l-1.74,0z"></path><path fill="#3562dd" id="svg_43" d="m152.944999,65.294c-1.992,0 -3.372,1.716 -3.372,3.696c0,1.392 0.912,2.412 2.388,2.412c1.992,0 3.384,-1.704 3.384,-3.684c0,-1.296 -0.828,-2.424 -2.4,-2.424zm-0.168,1.08c0.852,0 1.116,0.744 1.116,1.344c0,1.164 -0.696,2.604 -1.74,2.604c-0.708,0 -1.14,-0.564 -1.14,-1.368c0,-1.092 0.648,-2.58 1.764,-2.58z"></path><path fill="#3562dd" id="svg_44" d="m156.124999,72.626c0.576,-0.768 1.308,-2.064 1.812,-3.192l-1.572,0.12c-0.288,0.996 -0.816,2.256 -1.272,3.168l1.032,-0.096z"></path><path fill="#3562dd" id="svg_45" d="m162.499999,71.27l1.404,0l1.296,-6.864l2.256,0l0.24,-1.224l-5.892,0l-0.24,1.224l2.244,0l-1.308,6.864z"></path><path fill="#3562dd" id="svg_46" d="m170.529999,65.294c-0.708,0 -1.272,0.192 -1.752,0.54c-1.044,0.768 -1.524,2.736 -1.524,3.804c0,1.224 0.792,1.752 2.148,1.752c1.236,0 2.88,-0.516 2.88,-1.992c0,-0.78 -0.624,-1.176 -1.212,-1.248l0,-0.036c0.6,-0.168 1.368,-0.636 1.368,-1.428c0,-0.948 -0.78,-1.392 -1.908,-1.392zm-0.144,0.972c0.408,0 0.708,0.204 0.708,0.576c0,0.312 -0.252,0.54 -0.552,0.696c-0.444,0.228 -1.068,0.312 -1.62,0.396c0.204,-0.756 0.576,-1.668 1.464,-1.668zm-0.552,2.412c0.552,0 1.032,0.192 1.032,0.768c0,0.588 -0.576,0.96 -1.296,0.96c-0.648,0 -0.912,-0.324 -0.912,-0.852c0,-0.24 0.048,-0.504 0.084,-0.696c0.252,-0.084 0.66,-0.18 1.092,-0.18z"></path><path fill="#3562dd" id="svg_47" d="m176.659999,65.294c-1.992,0 -3.372,1.716 -3.372,3.696c0,1.392 0.912,2.412 2.388,2.412c1.992,0 3.384,-1.704 3.384,-3.684c0,-1.296 -0.828,-2.424 -2.4,-2.424zm-0.168,1.08c0.852,0 1.116,0.744 1.116,1.344c0,1.164 -0.696,2.604 -1.74,2.604c-0.708,0 -1.14,-0.564 -1.14,-1.368c0,-1.092 0.648,-2.58 1.764,-2.58z"></path><path fill="#3562dd" id="svg_48" d="m180.559999,73.646l0.468,-2.496l0.024,0c0.216,0.132 0.624,0.252 1.164,0.252c1.992,0 3.408,-1.896 3.408,-3.936c0,-1.14 -0.588,-2.172 -1.848,-2.172c-0.756,0 -1.476,0.396 -1.98,1.092l-0.024,0l0.132,-0.96l-1.26,0c-0.072,0.6 -0.204,1.476 -0.336,2.172l-1.14,6.048l1.392,0zm0.948,-5.04c0.252,-1.368 1.02,-2.172 1.728,-2.172c0.684,0 0.924,0.6 0.924,1.14c0,1.308 -0.888,2.748 -1.968,2.748c-0.408,0 -0.72,-0.108 -0.936,-0.288l0.252,-1.428z"></path><path fill="#3562dd" id="svg_49" d="m190.909999,65.426l-0.54,2.844c-0.228,1.212 -0.984,1.98 -1.632,1.98c-0.552,0 -0.744,-0.348 -0.744,-0.828c0,-0.228 0.036,-0.516 0.096,-0.804l0.6,-3.192l-1.392,0l-0.624,3.276c-0.084,0.396 -0.12,0.732 -0.12,1.044c0,1.2 0.672,1.656 1.524,1.656c0.732,0 1.464,-0.396 2.028,-1.152l0.024,0l-0.12,1.02l1.236,0c0.072,-0.504 0.156,-1.116 0.288,-1.812l0.768,-4.032l-1.392,0z"></path><path fill="#3562dd" id="svg_50" d="m194.199999,65.426l-1.56,5.844l1.248,0l0.636,-2.508c0.144,-0.564 0.324,-1.392 0.456,-2.028l0.048,0c0.024,0.516 0.12,1.284 0.192,1.896l0.324,2.568l1.068,0l1.428,-2.64c0.36,-0.684 0.744,-1.416 0.912,-1.812l0.048,0c-0.096,0.6 -0.228,1.428 -0.312,1.98l-0.372,2.544l1.296,0l0.768,-5.844l-1.776,0l-1.26,2.316c-0.348,0.636 -0.72,1.368 -0.888,1.74l-0.024,0c-0.036,-0.492 -0.108,-1.068 -0.156,-1.476l-0.336,-2.58l-1.74,0z"></path><path fill="#3562dd" id="svg_51" d="m204.599999,65.294c-1.992,0 -3.372,1.716 -3.372,3.696c0,1.392 0.912,2.412 2.388,2.412c1.992,0 3.384,-1.704 3.384,-3.684c0,-1.296 -0.828,-2.424 -2.4,-2.424zm-0.168,1.08c0.852,0 1.116,0.744 1.116,1.344c0,1.164 -0.696,2.604 -1.74,2.604c-0.708,0 -1.14,-0.564 -1.14,-1.368c0,-1.092 0.648,-2.58 1.764,-2.58z"></path><line fill="#3562dd" id="svg_55" y2="21.26" y1="20.73" x2="17.21" x1="149.03" class="cls-12"></line><path fill="#3562dd" stroke="null" id="svg_56" d="m164.44311,42.06291c-1.5076,0 -2.70858,0.38998 -3.73068,1.09681c-2.22308,1.55991 -3.24519,5.55719 -3.24519,7.72644c0,2.48611 1.68648,3.55854 4.57393,3.55854c2.63192,0 6.13263,-1.04806 6.13263,-4.04602c0,-1.58428 -1.32874,-2.38861 -2.58082,-2.53485l0,-0.07312c1.27763,-0.34123 2.913,-1.2918 2.913,-2.90046c0,-1.92552 -1.66092,-2.82734 -4.06287,-2.82734zm-0.30663,1.97426c0.86879,0 1.50761,0.41435 1.50761,1.16993c0,0.63372 -0.53661,1.09682 -1.17542,1.41367c-0.94545,0.4631 -2.27419,0.63372 -3.44961,0.80433c0.4344,-1.53553 1.22653,-3.38793 3.11742,-3.38793zm-1.17542,4.8991c1.17542,0 2.19753,0.38998 2.19753,1.55991c0,1.19431 -1.22653,1.94989 -2.75969,1.94989c-1.37984,0 -1.942,-0.65809 -1.942,-1.73053c0,-0.48747 0.10221,-1.02369 0.17887,-1.41367c0.53661,-0.17061 1.4054,-0.3656 2.32529,-0.3656z"></path></g></g></svg> 